<?xml version="1.0" encoding="UTF-8" standalone="no"?>
<svg
   xmlns:dc="http://purl.org/dc/elements/1.1/"
   xmlns:cc="http://creativecommons.org/ns#"
   xmlns:rdf="http://www.w3.org/1999/02/22-rdf-syntax-ns#"
   xmlns:svg="http://www.w3.org/2000/svg"
   xmlns="http://www.w3.org/2000/svg"
   xmlns:sodipodi="http://sodipodi.sourceforge.net/DTD/sodipodi-0.dtd"
   xmlns:inkscape="http://www.inkscape.org/namespaces/inkscape"
   width="300mm"
   height="300mm"
   viewBox="0 0 300 300"
   version="1.1"
   id="svg8"
   inkscape:version="1.0.2-2 (e86c870879, 2021-01-15)"
   sodipodi:docname="box for clock 1.svg">
  <defs
     id="defs2" />
  <sodipodi:namedview
     id="base"
     pagecolor="#ffffff"
     bordercolor="#666666"
     borderopacity="1.0"
     inkscape:pageopacity="0.0"
     inkscape:pageshadow="2"
     inkscape:zoom="0.68130298"
     inkscape:cx="483.61447"
     inkscape:cy="552.41486"
     inkscape:document-units="mm"
     inkscape:current-layer="layer1"
     inkscape:document-rotation="0"
     showgrid="false"
     inkscape:window-width="1431"
     inkscape:window-height="1030"
     inkscape:window-x="32"
     inkscape:window-y="0"
     inkscape:window-maximized="0" />
  <metadata
     id="metadata5">
    <rdf:RDF>
      <cc:Work
         rdf:about="">
        <dc:format>image/svg+xml</dc:format>
        <dc:type
           rdf:resource="http://purl.org/dc/dcmitype/StillImage" />
        <dc:title />
      </cc:Work>
    </rdf:RDF>
  </metadata>
  <g
     inkscape:label="Layer 1"
     inkscape:groupmode="layer"
     id="layer1">
    <path
       d="m 3.49981,109.32496 v 11.2 h 2.85 v 11.9 h -2.85 v 11.9 h 2.85 v 11.9 h -2.85 v 11.9 h 2.85 v 11.9 h -2.85 v 11.9 h 2.85 v 11.9 h -2.85 v 11.2 h 13.1 v -2.85 h 11.9 v 2.85 h 11.9 v -2.85 h 11.9 v 2.85 h 11.9 v -2.85 h 11.9 v 2.85 h 13.1 v -11.2 h -2.85 v -11.9 h 2.85 v -11.9 h -2.85 v -11.9 h 2.85 v -11.9 h -2.85 v -11.9 h 2.85 v -11.9 h -2.85 v -11.9 h 2.85 v -11.2 h -13.1 v 2.85 h -11.9 v -2.85 h -11.9 v 2.85 h -11.9 v -2.85 h -11.9 v 2.85 h -11.9 v -2.85 z"
       id="front_outsideCutPath"
       stroke="#FF0000"
       stroke-width="0.1"
       style="font-size:12px;fill:none;fill-rule:evenodd;stroke:#ff0000;stroke-width:0.1;stroke-linecap:round"
       vector-effect="non-scaling-stroke" />
    <path
       d="m 163.74981,152.17496 v 12.15 h -2.85 v 11.9 h 2.85 v 11.9 h -2.85 v 11.9 h 2.85 v 11.9 0.25 h 10.25 v 2.85 h 11.9 v -2.85 h 11.9 v 2.85 h 11.9 v -2.85 h 11.9 v 2.85 h 11.9 v -2.85 h 10.25 v -12.15 h 2.85 v -11.9 h -2.85 v -11.9 h 2.85 v -11.9 h -2.85 v -11.9 -0.25 h -10.25 v -2.85 h -11.9 v 2.85 h -11.9 v -2.85 h -11.9 v 2.85 h -11.9 v -2.85 h -11.9 v 2.85 z"
       id="top_outsideCutPath"
       stroke="#FF0000"
       stroke-width="0.1"
       style="font-size:12px;fill:none;fill-rule:evenodd;stroke:#ff0000;stroke-width:0.1;stroke-linecap:round"
       vector-effect="non-scaling-stroke" />
    <path
       d="M 3.49981,3.6249618 V 14.824962 h 2.85 v 11.9 h -2.85 v 11.9 h 2.85 v 11.9 h -2.85 v 11.9 h 2.85 v 11.9 h -2.85 v 11.9 h 2.85 v 11.9 h -2.85 v 11.199998 h 13.1 v -2.85 h 11.9 v 2.85 h 11.9 v -2.85 h 11.9 v 2.85 h 11.9 v -2.85 h 11.9 v 2.85 h 13.1 V 98.124962 h -2.85 v -11.9 h 2.85 v -11.9 h -2.85 v -11.9 h 2.85 v -11.9 h -2.85 v -11.9 h 2.85 v -11.9 h -2.85 v -11.9 h 2.85 V 3.6249618 h -13.1 v 2.85 h -11.9 v -2.85 h -11.9 v 2.85 h -11.9 v -2.85 h -11.9 v 2.85 h -11.9 v -2.85 z"
       id="back_outsideCutPath"
       stroke="#FF0000"
       stroke-width="0.1"
       style="font-size:12px;fill:none;fill-rule:evenodd;stroke:#ff0000;stroke-width:0.1;stroke-linecap:round"
       vector-effect="non-scaling-stroke" />
    <g
       id="g871">
      <path
         d="m 95.04981,109.32496 v 11.2 h -2.85 v 11.9 h 2.85 v 11.9 h -2.85 v 11.9 h 2.85 v 11.9 h -2.85 v 11.9 h 2.85 v 11.9 h -2.85 v 11.9 h 2.85 v 11.2 h 12.15 v -2.85 h 11.9 v 2.85 h 11.9 v -2.85 h 11.9 v 2.85 h 11.9 0.25 v -11.2 h 2.85 v -11.9 h -2.85 v -11.9 h 2.85 v -11.9 h -2.85 v -11.9 h 2.85 v -11.9 h -2.85 v -11.9 h 2.85 v -11.9 h -2.85 v -11.2 h -12.15 v 2.85 h -11.9 v -2.85 h -11.9 v 2.85 h -11.9 v -2.85 h -11.9 z"
         id="left_outsideCutPath"
         stroke="#FF0000"
         stroke-width="0.1"
         style="font-size:12px;fill:none;fill-rule:evenodd;stroke:#ff0000;stroke-width:0.1;stroke-linecap:round"
         vector-effect="non-scaling-stroke" />
      <rect
         style="fill:none;fill-rule:evenodd;stroke:#000000;stroke-width:0.02"
         id="rect847"
         width="10"
         height="10"
         x="130.99954"
         y="197.20259" />
    </g>
    <g
       id="g867">
      <path
         d="M 95.051216,1.8263621 V 13.026362 h -2.85 v 11.9 h 2.85 v 11.9 h -2.85 v 11.9 h 2.85 v 11.9 h -2.85 v 11.9 h 2.85 v 11.9 h -2.85 v 11.9 h 2.85 v 11.199998 h 12.150004 v -2.85 h 11.9 v 2.85 h 11.9 v -2.85 h 11.9 v 2.85 h 11.9 0.25 V 96.326362 h 2.85 v -11.9 h -2.85 v -11.9 h 2.85 v -11.9 h -2.85 v -11.9 h 2.85 v -11.9 h -2.85 v -11.9 h 2.85 v -11.9 h -2.85 V 1.8263621 h -12.15 v 2.8500001 h -11.9 V 1.8263621 h -11.9 v 2.8500001 h -11.9 V 1.8263621 H 95.301216 Z"
         id="right_outsideCutPath"
         stroke="#FF0000"
         stroke-width="0.1"
         style="font-size:12px;fill:none;fill-rule:evenodd;stroke:#ff0000;stroke-width:0.1;stroke-linecap:round"
         vector-effect="non-scaling-stroke" />
      <rect
         style="fill:none;fill-rule:evenodd;stroke:#000000;stroke-width:0.02"
         id="rect851"
         width="22"
         height="70"
         x="108.51962"
         y="14.823562" />
    </g>
    <g
       id="g863">
      <path
         d="m 163.74981,83.474962 v 12.15 h -2.85 v 11.899998 h 2.85 v 11.9 h -2.85 v 11.9 h 2.85 v 11.9 0.25 h 10.25 v 2.85 h 11.9 v -2.85 h 11.9 v 2.85 h 11.9 v -2.85 h 11.9 v 2.85 h 11.9 v -2.85 h 10.25 v -12.15 h 2.85 v -11.9 h -2.85 v -11.9 h 2.85 V 95.624962 h -2.85 v -11.9 -0.25 h -10.25 v -2.85 h -11.9 v 2.85 h -11.9 v -2.85 h -11.9 v 2.85 h -11.9 v -2.85 h -11.9 v 2.85 z"
         id="bottom_outsideCutPath"
         stroke="#FF0000"
         stroke-width="0.1"
         style="font-size:12px;fill:none;fill-rule:evenodd;stroke:#ff0000;stroke-width:0.1;stroke-linecap:round"
         vector-effect="non-scaling-stroke" />
      <rect
         style="fill:none;fill-rule:evenodd;stroke:#000000;stroke-width:0.02"
         id="rect859"
         width="12.7"
         height="22.1"
         x="220.00932"
         y="100.47427" />
    </g>
  </g>
</svg>
