<svg width="243.1mm" height="214.4mm" viewBox="0 0 243.1 214.4" xmlns="http://www.w3.org/2000/svg" version="1.1" preserveAspectRatio="xMidYMid meet"><g id="svgGroup" stroke-linecap="round" fill-rule="evenodd" font-size="9pt" stroke="#000" stroke-width="0.25mm" fill="none" style="stroke:#000;stroke-width:0.25mm;fill:none"><path d="M 0 108.7 L 0 119.9 L 2.85 119.9 L 2.85 131.8 L 0 131.8 L 0 143.7 L 2.85 143.7 L 2.85 155.6 L 0 155.6 L 0 167.5 L 2.85 167.5 L 2.85 179.4 L 0 179.4 L 0 191.3 L 2.85 191.3 L 2.85 203.2 L 0 203.2 L 0 214.4 L 13.1 214.4 L 13.1 211.55 L 25 211.55 L 25 214.4 L 36.9 214.4 L 36.9 211.55 L 48.8 211.55 L 48.8 214.4 L 60.7 214.4 L 60.7 211.55 L 72.6 211.55 L 72.6 214.4 L 85.7 214.4 L 85.7 203.2 L 82.85 203.2 L 82.85 191.3 L 85.7 191.3 L 85.7 179.4 L 82.85 179.4 L 82.85 167.5 L 85.7 167.5 L 85.7 155.6 L 82.85 155.6 L 82.85 143.7 L 85.7 143.7 L 85.7 131.8 L 82.85 131.8 L 82.85 119.9 L 85.7 119.9 L 85.7 108.7 L 72.6 108.7 L 72.6 111.55 L 60.7 111.55 L 60.7 108.7 L 48.8 108.7 L 48.8 111.55 L 36.9 111.55 L 36.9 108.7 L 25 108.7 L 25 111.55 L 13.1 111.55 L 13.1 108.7 L 0 108.7 Z" id="front_outsideCutPath" stroke="#FF0000" stroke-width="0.1" style="stroke:#FF0000;stroke-width:0.1" vector-effect="non-scaling-stroke"/><path d="M 55.341 168.023 L 53.952 168.023 L 53.952 162.09 A 3.927 3.927 0 0 0 53.907 161.474 Q 53.855 161.15 53.744 160.891 A 1.653 1.653 0 0 0 53.441 160.416 A 1.566 1.566 0 0 0 52.799 160.006 Q 52.395 159.863 51.843 159.863 A 4.205 4.205 0 0 0 51.056 159.932 Q 50.204 160.095 49.734 160.642 Q 49.122 161.353 49.069 162.909 A 8.9 8.9 0 0 0 49.064 163.211 L 49.064 168.023 L 47.675 168.023 L 47.675 158.851 L 48.805 158.851 L 49.031 160.106 L 49.098 160.106 A 2.813 2.813 0 0 1 50.199 159.104 A 3.383 3.383 0 0 1 50.294 159.056 A 3.762 3.762 0 0 1 51.633 158.699 A 4.549 4.549 0 0 1 52.01 158.683 A 5.485 5.485 0 0 1 52.944 158.758 Q 53.922 158.927 54.504 159.483 A 2.408 2.408 0 0 1 55.091 160.404 Q 55.231 160.783 55.293 161.253 A 6.063 6.063 0 0 1 55.341 162.039 L 55.341 168.023 Z M 28.652 158.851 L 28.652 159.93 L 26.317 159.93 L 26.317 168.023 L 24.927 168.023 L 24.927 159.93 L 23.287 159.93 L 23.287 159.303 L 24.927 158.801 L 24.927 158.29 A 5.631 5.631 0 0 1 25.059 157.014 Q 25.465 155.274 27.129 154.972 A 4.223 4.223 0 0 1 27.882 154.909 Q 28.448 154.909 29.165 155.086 A 8.993 8.993 0 0 1 29.589 155.202 L 29.229 156.315 Q 28.659 156.131 28.206 156.077 A 2.988 2.988 0 0 0 27.857 156.055 A 1.874 1.874 0 0 0 27.405 156.107 A 1.203 1.203 0 0 0 26.693 156.579 Q 26.352 157.053 26.32 158.048 A 6.56 6.56 0 0 0 26.317 158.257 L 26.317 158.851 L 28.652 158.851 Z M 62.413 166.877 L 62.413 167.94 A 1.367 1.367 0 0 1 62.251 168.004 Q 62.05 168.071 61.748 168.12 A 6.022 6.022 0 0 1 61.355 168.171 Q 61.17 168.188 61.004 168.19 A 3.562 3.562 0 0 1 60.957 168.191 A 3.629 3.629 0 0 1 59.887 168.047 Q 58.295 167.556 58.295 165.387 L 58.295 159.93 L 56.981 159.93 L 56.981 159.261 L 58.295 158.683 L 58.881 156.725 L 59.685 156.725 L 59.685 158.851 L 62.346 158.851 L 62.346 159.93 L 59.685 159.93 L 59.685 165.328 A 2.798 2.798 0 0 0 59.725 165.82 Q 59.773 166.089 59.879 166.303 A 1.348 1.348 0 0 0 60.078 166.601 A 1.291 1.291 0 0 0 60.871 167.023 A 1.857 1.857 0 0 0 61.157 167.044 Q 61.526 167.044 61.869 166.99 A 7.515 7.515 0 0 0 62.069 166.955 Q 62.261 166.92 62.394 166.882 A 2.083 2.083 0 0 0 62.413 166.877 Z M 35.607 158.784 L 35.414 160.073 Q 34.845 159.947 34.41 159.947 A 2.407 2.407 0 0 0 32.631 160.715 A 3.293 3.293 0 0 0 32.506 160.851 A 3.173 3.173 0 0 0 31.74 162.632 A 4.217 4.217 0 0 0 31.715 163.102 L 31.715 168.023 L 30.326 168.023 L 30.326 158.851 L 31.472 158.851 L 31.631 160.55 L 31.698 160.55 Q 32.209 159.654 32.928 159.169 Q 33.648 158.683 34.51 158.683 A 6.378 6.378 0 0 1 35.081 158.708 A 4.655 4.655 0 0 1 35.607 158.784 Z M 45.112 164.825 A 7.176 7.176 0 0 0 45.239 163.429 A 8.154 8.154 0 0 0 45.236 163.208 Q 45.182 161.179 44.105 159.964 A 3.637 3.637 0 0 0 42.417 158.875 A 4.668 4.668 0 0 0 41.046 158.683 Q 39.055 158.683 37.933 159.935 A 3.838 3.838 0 0 0 37.462 160.588 Q 36.812 161.721 36.812 163.429 A 6.95 6.95 0 0 0 36.899 164.554 A 5.139 5.139 0 0 0 37.331 165.956 A 4.566 4.566 0 0 0 37.432 166.154 A 3.761 3.761 0 0 0 38.804 167.613 A 3.868 3.868 0 0 0 39.691 168.008 A 4.461 4.461 0 0 0 40.988 168.191 A 5.395 5.395 0 0 0 41.93 168.112 A 3.704 3.704 0 0 0 44.11 166.931 A 3.876 3.876 0 0 0 44.571 166.297 Q 44.947 165.653 45.112 164.825 Z M 38.251 163.429 A 7.035 7.035 0 0 0 38.318 164.434 Q 38.468 165.47 38.954 166.107 A 2.277 2.277 0 0 0 40.437 166.98 A 3.45 3.45 0 0 0 41.021 167.027 A 3.227 3.227 0 0 0 41.873 166.922 A 2.246 2.246 0 0 0 43.093 166.111 A 2.982 2.982 0 0 0 43.557 165.206 Q 43.8 164.463 43.8 163.429 Q 43.8 162.307 43.509 161.531 A 2.86 2.86 0 0 0 43.093 160.771 A 2.285 2.285 0 0 0 41.672 159.924 A 3.504 3.504 0 0 0 41.005 159.863 A 3.306 3.306 0 0 0 40.181 159.96 A 2.213 2.213 0 0 0 38.946 160.759 A 2.872 2.872 0 0 0 38.499 161.622 Q 38.251 162.368 38.251 163.429 Z" id="front_labelLayer" stroke="#777777" fill="#777777" style="stroke:#777777;fill:#777777" vector-effect="non-scaling-stroke"/><path d="M 91.55 108.7 L 91.55 119.9 L 88.7 119.9 L 88.7 131.8 L 91.55 131.8 L 91.55 143.7 L 88.7 143.7 L 88.7 155.6 L 91.55 155.6 L 91.55 167.5 L 88.7 167.5 L 88.7 179.4 L 91.55 179.4 L 91.55 191.3 L 88.7 191.3 L 88.7 203.2 L 91.55 203.2 L 91.55 214.4 L 103.7 214.4 L 103.7 211.55 L 115.6 211.55 L 115.6 214.4 L 127.5 214.4 L 127.5 211.55 L 139.4 211.55 L 139.4 214.4 L 151.3 214.4 L 151.55 214.4 L 151.55 203.2 L 154.4 203.2 L 154.4 191.3 L 151.55 191.3 L 151.55 179.4 L 154.4 179.4 L 154.4 167.5 L 151.55 167.5 L 151.55 155.6 L 154.4 155.6 L 154.4 143.7 L 151.55 143.7 L 151.55 131.8 L 154.4 131.8 L 154.4 119.9 L 151.55 119.9 L 151.55 108.7 L 139.4 108.7 L 139.4 111.55 L 127.5 111.55 L 127.5 108.7 L 115.6 108.7 L 115.6 111.55 L 103.7 111.55 L 103.7 108.7 L 91.8 108.7 L 91.55 108.7 Z" id="left_outsideCutPath" stroke="#FF0000" stroke-width="0.1" style="stroke:#FF0000;stroke-width:0.1" vector-effect="non-scaling-stroke"/><path d="M 126.224 159.481 L 126.224 160.308 L 124.434 160.308 L 124.434 166.513 L 123.369 166.513 L 123.369 160.308 L 122.111 160.308 L 122.111 159.827 L 123.369 159.442 L 123.369 159.051 A 4.317 4.317 0 0 1 123.47 158.073 Q 123.847 156.459 125.634 156.459 A 3.43 3.43 0 0 1 126.119 156.496 Q 126.497 156.55 126.943 156.683 L 126.667 157.537 A 5.172 5.172 0 0 0 126.265 157.423 Q 126.061 157.376 125.882 157.354 A 2.29 2.29 0 0 0 125.615 157.338 Q 125.011 157.338 124.723 157.739 Q 124.434 158.14 124.434 159.025 L 124.434 159.481 L 126.224 159.481 Z M 121.239 162.515 L 121.239 163.189 L 116.395 163.189 A 4.275 4.275 0 0 0 116.47 163.905 Q 116.547 164.295 116.701 164.602 A 2 2 0 0 0 117.02 165.069 A 1.935 1.935 0 0 0 118.036 165.642 A 2.932 2.932 0 0 0 118.692 165.711 A 5.625 5.625 0 0 0 120.798 165.293 A 6.446 6.446 0 0 0 120.937 165.236 L 120.937 166.185 A 6.394 6.394 0 0 1 120.355 166.406 A 4.89 4.89 0 0 1 119.869 166.535 Q 119.477 166.617 118.96 166.636 A 8.677 8.677 0 0 1 118.653 166.641 A 4.139 4.139 0 0 1 117.618 166.518 A 2.931 2.931 0 0 1 116.193 165.691 A 3.134 3.134 0 0 1 115.443 164.314 Q 115.313 163.826 115.294 163.247 A 6.084 6.084 0 0 1 115.291 163.054 A 5.593 5.593 0 0 1 115.395 161.945 Q 115.586 161.002 116.128 160.353 Q 116.966 159.352 118.377 159.352 Q 119.699 159.352 120.469 160.222 A 2.978 2.978 0 0 1 121.144 161.583 A 4.335 4.335 0 0 1 121.239 162.515 Z M 130.741 165.634 L 130.741 166.448 A 1.048 1.048 0 0 1 130.617 166.498 Q 130.462 166.549 130.231 166.586 A 4.616 4.616 0 0 1 129.93 166.626 Q 129.788 166.639 129.661 166.641 A 2.731 2.731 0 0 1 129.625 166.641 A 2.782 2.782 0 0 1 128.805 166.531 Q 127.904 166.253 127.668 165.274 A 3.348 3.348 0 0 1 127.584 164.492 L 127.584 160.308 L 126.577 160.308 L 126.577 159.795 L 127.584 159.352 L 128.033 157.851 L 128.649 157.851 L 128.649 159.481 L 130.69 159.481 L 130.69 160.308 L 128.649 160.308 L 128.649 164.447 A 2.145 2.145 0 0 0 128.68 164.823 Q 128.717 165.03 128.798 165.194 A 1.033 1.033 0 0 0 128.951 165.422 A 0.989 0.989 0 0 0 129.559 165.746 A 1.424 1.424 0 0 0 129.779 165.762 A 3.498 3.498 0 0 0 130.291 165.725 A 3.226 3.226 0 0 0 130.324 165.72 A 5.762 5.762 0 0 0 130.478 165.694 Q 130.635 165.665 130.741 165.634 Z M 113.424 156.529 L 113.424 166.513 L 112.359 166.513 L 112.359 156.529 L 113.424 156.529 Z M 116.42 162.323 L 120.097 162.323 A 3.629 3.629 0 0 0 120.053 161.739 Q 119.956 161.148 119.648 160.78 A 1.459 1.459 0 0 0 118.769 160.28 A 2.189 2.189 0 0 0 118.364 160.244 A 2.099 2.099 0 0 0 117.758 160.328 A 1.622 1.622 0 0 0 117.014 160.796 A 2.104 2.104 0 0 0 116.596 161.502 Q 116.463 161.866 116.42 162.323 Z" id="left_labelLayer" stroke="#777777" fill="#777777" style="stroke:#777777;fill:#777777" vector-effect="non-scaling-stroke"/><path d="M 160.25 151.55 L 160.25 163.7 L 157.4 163.7 L 157.4 175.6 L 160.25 175.6 L 160.25 187.5 L 157.4 187.5 L 157.4 199.4 L 160.25 199.4 L 160.25 211.3 L 160.25 211.55 L 170.5 211.55 L 170.5 214.4 L 182.4 214.4 L 182.4 211.55 L 194.3 211.55 L 194.3 214.4 L 206.2 214.4 L 206.2 211.55 L 218.1 211.55 L 218.1 214.4 L 230 214.4 L 230 211.55 L 240.25 211.55 L 240.25 199.4 L 243.1 199.4 L 243.1 187.5 L 240.25 187.5 L 240.25 175.6 L 243.1 175.6 L 243.1 163.7 L 240.25 163.7 L 240.25 151.8 L 240.25 151.55 L 230 151.55 L 230 148.7 L 218.1 148.7 L 218.1 151.55 L 206.2 151.55 L 206.2 148.7 L 194.3 148.7 L 194.3 151.55 L 182.4 151.55 L 182.4 148.7 L 170.5 148.7 L 170.5 151.55 L 160.25 151.55 Z" id="top_outsideCutPath" stroke="#FF0000" stroke-width="0.1" style="stroke:#FF0000;stroke-width:0.1" vector-effect="non-scaling-stroke"/><path d="M 204.972 183.398 L 204.895 183.398 Q 204.972 184.014 204.972 184.566 L 204.972 187.459 L 203.907 187.459 L 203.907 177.271 L 204.773 177.271 L 204.921 178.233 L 204.972 178.233 A 2.867 2.867 0 0 1 205.387 177.762 A 2.217 2.217 0 0 1 205.928 177.399 A 2.667 2.667 0 0 1 206.693 177.175 A 3.452 3.452 0 0 1 207.179 177.142 A 3.265 3.265 0 0 1 208.102 177.265 A 2.413 2.413 0 0 1 209.338 178.098 Q 210.099 179.054 210.099 180.78 A 6.245 6.245 0 0 1 210.016 181.831 Q 209.92 182.391 209.714 182.84 A 2.994 2.994 0 0 1 209.325 183.472 Q 208.552 184.431 207.179 184.431 A 3.231 3.231 0 0 1 206.367 184.332 A 2.811 2.811 0 0 1 205.925 184.177 A 2.359 2.359 0 0 1 204.972 183.398 Z M 194.565 183.423 L 194.565 184.238 A 1.048 1.048 0 0 1 194.441 184.288 Q 194.287 184.339 194.055 184.376 A 4.616 4.616 0 0 1 193.754 184.415 Q 193.612 184.429 193.485 184.431 A 2.731 2.731 0 0 1 193.449 184.431 A 2.782 2.782 0 0 1 192.629 184.32 Q 191.728 184.042 191.492 183.064 A 3.348 3.348 0 0 1 191.409 182.281 L 191.409 178.098 L 190.401 178.098 L 190.401 177.585 L 191.409 177.142 L 191.858 175.641 L 192.474 175.641 L 192.474 177.271 L 194.514 177.271 L 194.514 178.098 L 192.474 178.098 L 192.474 182.237 A 2.145 2.145 0 0 0 192.505 182.613 Q 192.542 182.82 192.623 182.983 A 1.033 1.033 0 0 0 192.775 183.212 A 0.989 0.989 0 0 0 193.384 183.536 A 1.424 1.424 0 0 0 193.603 183.552 A 3.498 3.498 0 0 0 194.115 183.515 A 3.226 3.226 0 0 0 194.148 183.51 A 5.762 5.762 0 0 0 194.302 183.484 Q 194.459 183.454 194.565 183.423 Z M 202.04 180.78 Q 202.04 182.5 201.174 183.465 A 2.839 2.839 0 0 1 199.503 184.37 A 4.136 4.136 0 0 1 198.781 184.431 A 3.42 3.42 0 0 1 197.787 184.291 A 2.966 2.966 0 0 1 197.106 183.988 A 2.883 2.883 0 0 1 196.054 182.87 A 3.501 3.501 0 0 1 195.977 182.718 A 3.94 3.94 0 0 1 195.646 181.643 A 5.328 5.328 0 0 1 195.579 180.78 Q 195.579 179.471 196.077 178.603 A 2.942 2.942 0 0 1 196.439 178.101 A 2.817 2.817 0 0 1 198.083 177.206 A 4.137 4.137 0 0 1 198.826 177.142 A 3.579 3.579 0 0 1 199.876 177.289 A 2.788 2.788 0 0 1 201.171 178.124 Q 201.996 179.055 202.038 180.611 A 6.25 6.25 0 0 1 202.04 180.78 Z M 196.683 180.78 A 5.393 5.393 0 0 0 196.734 181.551 Q 196.791 181.942 196.91 182.259 A 2.234 2.234 0 0 0 197.222 182.833 Q 197.761 183.539 198.806 183.539 A 2.474 2.474 0 0 0 199.459 183.458 A 1.722 1.722 0 0 0 200.394 182.836 Q 200.797 182.314 200.901 181.431 A 5.61 5.61 0 0 0 200.936 180.78 A 5.314 5.314 0 0 0 200.886 180.023 Q 200.771 179.227 200.394 178.743 A 1.752 1.752 0 0 0 199.305 178.093 A 2.686 2.686 0 0 0 198.794 178.047 A 2.535 2.535 0 0 0 198.162 178.121 A 1.696 1.696 0 0 0 197.215 178.733 A 2.202 2.202 0 0 0 196.873 179.395 Q 196.683 179.967 196.683 180.78 Z M 204.972 180.543 L 204.972 180.78 A 7.042 7.042 0 0 0 205.007 181.508 Q 205.103 182.432 205.466 182.901 Q 205.909 183.473 206.832 183.532 A 3.425 3.425 0 0 0 207.051 183.539 Q 207.927 183.539 208.438 182.857 A 2.122 2.122 0 0 0 208.478 182.801 Q 208.995 182.063 208.995 180.767 Q 208.995 179.904 208.773 179.305 A 2.258 2.258 0 0 0 208.478 178.749 A 1.657 1.657 0 0 0 207.267 178.059 A 2.291 2.291 0 0 0 207.025 178.047 A 3.069 3.069 0 0 0 206.452 178.097 Q 205.808 178.219 205.466 178.644 A 1.825 1.825 0 0 0 205.181 179.164 Q 205 179.654 204.976 180.379 A 6.778 6.778 0 0 0 204.972 180.543 Z" id="top_labelLayer" stroke="#777777" fill="#777777" style="stroke:#777777;fill:#777777" vector-effect="non-scaling-stroke"/><path d="M 0 0 L 0 11.2 L 2.85 11.2 L 2.85 23.1 L 0 23.1 L 0 35 L 2.85 35 L 2.85 46.9 L 0 46.9 L 0 58.8 L 2.85 58.8 L 2.85 70.7 L 0 70.7 L 0 82.6 L 2.85 82.6 L 2.85 94.5 L 0 94.5 L 0 105.7 L 13.1 105.7 L 13.1 102.85 L 25 102.85 L 25 105.7 L 36.9 105.7 L 36.9 102.85 L 48.8 102.85 L 48.8 105.7 L 60.7 105.7 L 60.7 102.85 L 72.6 102.85 L 72.6 105.7 L 85.7 105.7 L 85.7 94.5 L 82.85 94.5 L 82.85 82.6 L 85.7 82.6 L 85.7 70.7 L 82.85 70.7 L 82.85 58.8 L 85.7 58.8 L 85.7 46.9 L 82.85 46.9 L 82.85 35 L 85.7 35 L 85.7 23.1 L 82.85 23.1 L 82.85 11.2 L 85.7 11.2 L 85.7 0 L 72.6 0 L 72.6 2.85 L 60.7 2.85 L 60.7 0 L 48.8 0 L 48.8 2.85 L 36.9 2.85 L 36.9 0 L 25 0 L 25 2.85 L 13.1 2.85 L 13.1 0 L 0 0 Z" id="back_outsideCutPath" stroke="#FF0000" stroke-width="0.1" style="stroke:#FF0000;stroke-width:0.1" vector-effect="non-scaling-stroke"/><path d="M 54.584 54.582 L 54.65 54.582 Q 54.926 54.191 55.422 53.614 A 29.852 29.852 0 0 1 55.747 53.243 L 58.71 50.105 L 60.358 50.105 L 56.642 54.013 L 60.618 59.277 L 58.935 59.277 L 55.697 54.942 L 54.65 55.846 L 54.65 59.277 L 53.278 59.277 L 53.278 46.255 L 54.65 46.255 L 54.65 53.16 Q 54.65 53.62 54.584 54.582 Z M 26.472 58.097 L 26.371 58.097 L 26.078 59.277 L 25.082 59.277 L 25.082 46.255 L 26.472 46.255 L 26.472 49.419 A 28.965 28.965 0 0 1 26.456 50.397 Q 26.439 50.891 26.405 51.327 L 26.472 51.327 A 3.159 3.159 0 0 1 28.777 49.988 A 4.745 4.745 0 0 1 29.351 49.954 A 4.246 4.246 0 0 1 30.546 50.114 A 3.179 3.179 0 0 1 32.158 51.189 Q 33.159 52.423 33.159 54.683 Q 33.159 56.942 32.15 58.194 A 3.289 3.289 0 0 1 29.813 59.423 A 4.712 4.712 0 0 1 29.351 59.445 A 4.214 4.214 0 0 1 28.292 59.316 A 3.667 3.667 0 0 1 27.714 59.114 Q 26.974 58.784 26.472 58.097 Z M 42.256 59.277 L 41.226 59.277 L 40.95 57.972 L 40.883 57.972 Q 40.399 58.58 39.916 58.912 A 2.56 2.56 0 0 1 39.515 59.139 A 3.204 3.204 0 0 1 38.853 59.348 Q 38.532 59.415 38.16 59.435 A 6.252 6.252 0 0 1 37.812 59.445 A 4.263 4.263 0 0 1 36.944 59.362 Q 36.182 59.203 35.673 58.742 A 2.284 2.284 0 0 1 34.985 57.537 A 3.496 3.496 0 0 1 34.899 56.742 Q 34.899 54.053 39.061 53.84 A 13.571 13.571 0 0 1 39.343 53.829 L 40.9 53.779 L 40.9 53.21 Q 40.9 52.13 40.436 51.615 A 1.41 1.41 0 0 0 39.858 51.239 Q 39.478 51.101 38.95 51.101 A 4.523 4.523 0 0 0 37.909 51.231 Q 37.181 51.403 36.356 51.804 L 35.929 50.741 A 6.406 6.406 0 0 1 37.165 50.233 A 7.291 7.291 0 0 1 37.414 50.163 A 6.434 6.434 0 0 1 39.034 49.954 A 5.868 5.868 0 0 1 39.927 50.018 Q 40.907 50.169 41.465 50.682 Q 42.085 51.253 42.219 52.365 A 5.467 5.467 0 0 1 42.256 53.017 L 42.256 59.277 Z M 51.236 50.414 L 50.809 51.595 A 6.18 6.18 0 0 0 50.139 51.372 A 7.382 7.382 0 0 0 49.805 51.289 A 5.739 5.739 0 0 0 49.368 51.208 Q 49.084 51.168 48.842 51.168 A 3.082 3.082 0 0 0 47.591 51.403 Q 46.279 51.981 46.082 53.981 A 7.677 7.677 0 0 0 46.047 54.733 A 6.728 6.728 0 0 0 46.114 55.713 Q 46.187 56.209 46.341 56.613 A 2.882 2.882 0 0 0 46.729 57.327 A 2.207 2.207 0 0 0 48.159 58.182 A 3.361 3.361 0 0 0 48.75 58.231 A 5.816 5.816 0 0 0 50.354 57.998 A 7.181 7.181 0 0 0 51.102 57.737 L 51.102 58.968 Q 50.311 59.377 49.169 59.435 A 7.619 7.619 0 0 1 48.784 59.445 A 5.192 5.192 0 0 1 47.521 59.3 A 3.521 3.521 0 0 1 45.7 58.219 A 4.019 4.019 0 0 1 44.864 56.684 Q 44.608 55.836 44.608 54.75 A 7.665 7.665 0 0 1 44.726 53.356 Q 44.97 52.037 45.716 51.193 A 3.597 3.597 0 0 1 47.686 50.06 A 5.453 5.453 0 0 1 48.876 49.937 Q 49.537 49.937 50.198 50.08 A 6.934 6.934 0 0 1 50.584 50.174 Q 50.977 50.282 51.236 50.414 Z M 29.15 51.117 A 3.904 3.904 0 0 0 28.394 51.186 Q 27.963 51.271 27.636 51.462 A 1.848 1.848 0 0 0 27.099 51.933 Q 26.548 52.65 26.481 54.23 A 10.704 10.704 0 0 0 26.472 54.683 A 9.186 9.186 0 0 0 26.517 55.632 Q 26.643 56.837 27.116 57.449 Q 27.694 58.195 28.897 58.273 A 4.467 4.467 0 0 0 29.183 58.281 A 2.77 2.77 0 0 0 29.97 58.176 A 1.998 1.998 0 0 0 31.091 57.348 A 3.189 3.189 0 0 0 31.486 56.495 Q 31.719 55.732 31.719 54.666 Q 31.719 52.875 31.091 51.996 A 2.026 2.026 0 0 0 29.802 51.18 A 3.213 3.213 0 0 0 29.15 51.117 Z M 40.867 55.595 L 40.867 54.766 L 39.477 54.825 Q 38.093 54.874 37.355 55.2 A 2.134 2.134 0 0 0 37.088 55.34 A 1.482 1.482 0 0 0 36.381 56.415 A 2.194 2.194 0 0 0 36.356 56.758 A 1.985 1.985 0 0 0 36.405 57.214 Q 36.505 57.641 36.812 57.905 A 1.512 1.512 0 0 0 37.378 58.206 Q 37.603 58.272 37.871 58.291 A 3.125 3.125 0 0 0 38.088 58.298 Q 39.385 58.298 40.126 57.587 Q 40.867 56.875 40.867 55.595 Z" id="back_labelLayer" stroke="#777777" fill="#777777" style="stroke:#777777;fill:#777777" vector-effect="non-scaling-stroke"/><path d="M 91.55 0 L 91.55 11.2 L 88.7 11.2 L 88.7 23.1 L 91.55 23.1 L 91.55 35 L 88.7 35 L 88.7 46.9 L 91.55 46.9 L 91.55 58.8 L 88.7 58.8 L 88.7 70.7 L 91.55 70.7 L 91.55 82.6 L 88.7 82.6 L 88.7 94.5 L 91.55 94.5 L 91.55 105.7 L 103.7 105.7 L 103.7 102.85 L 115.6 102.85 L 115.6 105.7 L 127.5 105.7 L 127.5 102.85 L 139.4 102.85 L 139.4 105.7 L 151.3 105.7 L 151.55 105.7 L 151.55 94.5 L 154.4 94.5 L 154.4 82.6 L 151.55 82.6 L 151.55 70.7 L 154.4 70.7 L 154.4 58.8 L 151.55 58.8 L 151.55 46.9 L 154.4 46.9 L 154.4 35 L 151.55 35 L 151.55 23.1 L 154.4 23.1 L 154.4 11.2 L 151.55 11.2 L 151.55 0 L 139.4 0 L 139.4 2.85 L 127.5 2.85 L 127.5 0 L 115.6 0 L 115.6 2.85 L 103.7 2.85 L 103.7 0 L 91.8 0 L 91.55 0 Z" id="right_outsideCutPath" stroke="#FF0000" stroke-width="0.1" style="stroke:#FF0000;stroke-width:0.1" vector-effect="non-scaling-stroke"/><path d="M 129.721 56.263 L 128.656 56.263 L 128.656 51.714 A 3.011 3.011 0 0 0 128.621 51.242 Q 128.582 50.994 128.497 50.796 A 1.267 1.267 0 0 0 128.264 50.431 A 1.201 1.201 0 0 0 127.772 50.117 Q 127.578 50.049 127.341 50.023 A 2.824 2.824 0 0 0 127.039 50.008 Q 126.314 50.008 125.845 50.265 A 1.491 1.491 0 0 0 125.419 50.611 Q 124.909 51.214 124.909 52.587 L 124.909 56.263 L 123.844 56.263 L 123.844 46.28 L 124.909 46.28 L 124.909 49.302 A 9.581 9.581 0 0 1 124.902 49.67 Q 124.896 49.842 124.882 49.991 A 4.166 4.166 0 0 1 124.857 50.207 L 124.922 50.207 A 2.128 2.128 0 0 1 125.667 49.489 A 2.6 2.6 0 0 1 125.817 49.408 Q 126.397 49.116 127.142 49.116 Q 127.99 49.116 128.559 49.381 A 1.92 1.92 0 0 1 129.076 49.729 A 1.854 1.854 0 0 1 129.533 50.447 Q 129.721 50.956 129.721 51.676 L 129.721 56.263 Z M 119.968 49.231 L 122.4 49.231 L 122.4 49.905 L 121.098 50.059 A 1.731 1.731 0 0 1 121.247 50.282 Q 121.313 50.397 121.373 50.535 A 3.283 3.283 0 0 1 121.418 50.646 A 2.049 2.049 0 0 1 121.54 51.136 A 2.631 2.631 0 0 1 121.56 51.464 Q 121.56 52.497 120.854 53.113 A 2.362 2.362 0 0 1 119.925 53.602 Q 119.573 53.701 119.155 53.723 A 4.626 4.626 0 0 1 118.916 53.729 A 3.423 3.423 0 0 1 118.52 53.707 A 2.89 2.89 0 0 1 118.326 53.678 Q 117.938 53.883 117.771 54.149 A 0.801 0.801 0 0 0 117.646 54.582 A 0.552 0.552 0 0 0 117.674 54.763 Q 117.725 54.911 117.869 55 A 0.591 0.591 0 0 0 117.883 55.009 Q 118.121 55.147 118.698 55.147 L 119.943 55.147 A 4.36 4.36 0 0 1 120.605 55.194 Q 120.951 55.247 121.231 55.361 A 1.925 1.925 0 0 1 121.698 55.628 A 1.558 1.558 0 0 1 122.277 56.621 A 2.34 2.34 0 0 1 122.31 57.027 Q 122.31 58.172 121.41 58.783 A 2.532 2.532 0 0 1 121.374 58.807 A 3.194 3.194 0 0 1 120.55 59.181 Q 120.144 59.304 119.649 59.364 A 8.442 8.442 0 0 1 118.64 59.42 A 5.967 5.967 0 0 1 117.84 59.37 Q 117.027 59.26 116.513 58.907 A 1.697 1.697 0 0 1 115.966 58.313 Q 115.791 57.988 115.769 57.576 A 2.249 2.249 0 0 1 115.766 57.457 A 1.629 1.629 0 0 1 116.177 56.347 Q 116.587 55.878 117.331 55.712 Q 117.062 55.59 116.879 55.333 A 0.987 0.987 0 0 1 116.698 54.799 A 1.223 1.223 0 0 1 116.696 54.736 A 1.218 1.218 0 0 1 116.758 54.344 A 1.079 1.079 0 0 1 116.902 54.063 Q 117.057 53.844 117.347 53.637 A 3.346 3.346 0 0 1 117.55 53.504 Q 117.004 53.28 116.661 52.741 A 2.202 2.202 0 0 1 116.323 51.68 A 2.687 2.687 0 0 1 116.318 51.509 A 3.077 3.077 0 0 1 116.399 50.781 A 2.025 2.025 0 0 1 117.011 49.729 Q 117.704 49.103 118.974 49.103 A 4.082 4.082 0 0 1 119.514 49.137 A 3.109 3.109 0 0 1 119.968 49.231 Z M 135.142 55.384 L 135.142 56.199 A 1.048 1.048 0 0 1 135.018 56.248 Q 134.864 56.3 134.632 56.337 A 4.616 4.616 0 0 1 134.331 56.376 Q 134.189 56.39 134.062 56.391 A 2.731 2.731 0 0 1 134.026 56.392 A 2.782 2.782 0 0 1 133.206 56.281 Q 132.305 56.003 132.069 55.024 A 3.348 3.348 0 0 1 131.986 54.242 L 131.986 50.059 L 130.978 50.059 L 130.978 49.546 L 131.986 49.103 L 132.435 47.602 L 133.051 47.602 L 133.051 49.231 L 135.091 49.231 L 135.091 50.059 L 133.051 50.059 L 133.051 54.197 A 2.145 2.145 0 0 0 133.082 54.574 Q 133.119 54.781 133.2 54.944 A 1.033 1.033 0 0 0 133.352 55.173 A 0.989 0.989 0 0 0 133.96 55.496 A 1.424 1.424 0 0 0 134.18 55.513 A 3.498 3.498 0 0 0 134.692 55.476 A 3.226 3.226 0 0 0 134.725 55.471 A 5.762 5.762 0 0 0 134.879 55.445 Q 135.036 55.415 135.142 55.384 Z M 112.006 49.18 L 111.859 50.168 Q 111.422 50.072 111.089 50.072 Q 110.235 50.072 109.629 50.765 A 2.432 2.432 0 0 0 109.042 52.13 A 3.233 3.233 0 0 0 109.023 52.491 L 109.023 56.263 L 107.958 56.263 L 107.958 49.231 L 108.837 49.231 L 108.959 50.534 L 109.01 50.534 A 3.597 3.597 0 0 1 109.412 49.959 A 2.747 2.747 0 0 1 109.953 49.475 A 2.123 2.123 0 0 1 111.166 49.103 Q 111.634 49.103 112.006 49.18 Z M 114.387 49.231 L 114.387 56.263 L 113.321 56.263 L 113.321 49.231 L 114.387 49.231 Z M 119.603 56.103 L 118.326 56.103 A 2.448 2.448 0 0 0 117.885 56.14 Q 117.634 56.186 117.436 56.289 A 1.247 1.247 0 0 0 117.197 56.449 A 1.122 1.122 0 0 0 116.828 57.086 A 1.704 1.704 0 0 0 116.793 57.444 Q 116.793 57.976 117.211 58.269 A 1.25 1.25 0 0 0 117.274 58.31 A 1.706 1.706 0 0 0 117.693 58.49 Q 118.092 58.605 118.653 58.605 Q 119.994 58.605 120.639 58.204 A 1.554 1.554 0 0 0 120.999 57.902 A 1.164 1.164 0 0 0 121.284 57.117 Q 121.284 56.763 121.148 56.543 A 0.671 0.671 0 0 0 120.931 56.324 Q 120.578 56.103 119.603 56.103 Z M 117.37 51.483 A 2.079 2.079 0 0 0 117.413 51.919 Q 117.471 52.19 117.607 52.392 A 1.139 1.139 0 0 0 117.787 52.6 Q 118.204 52.978 118.948 52.978 A 2.32 2.32 0 0 0 119.556 52.906 Q 120.251 52.717 120.438 52.035 A 2.157 2.157 0 0 0 120.507 51.464 A 2.29 2.29 0 0 0 120.429 50.837 Q 120.229 50.134 119.514 49.947 A 2.316 2.316 0 0 0 118.929 49.879 A 2.235 2.235 0 0 0 118.474 49.923 Q 118.046 50.012 117.774 50.284 A 1.278 1.278 0 0 0 117.465 50.804 Q 117.4 51.006 117.379 51.251 A 2.802 2.802 0 0 0 117.37 51.483 Z M 113.247 47.131 A 1.18 1.18 0 0 0 113.232 47.326 A 1.258 1.258 0 0 0 113.237 47.446 Q 113.263 47.716 113.411 47.862 A 0.598 0.598 0 0 0 113.628 47.999 A 0.677 0.677 0 0 0 113.86 48.038 A 0.621 0.621 0 0 0 114.303 47.862 A 0.52 0.52 0 0 0 114.405 47.727 Q 114.451 47.64 114.472 47.528 A 1.102 1.102 0 0 0 114.489 47.326 A 1.218 1.218 0 0 0 114.484 47.21 Q 114.474 47.105 114.445 47.019 A 0.538 0.538 0 0 0 114.303 46.793 A 0.628 0.628 0 0 0 113.86 46.62 A 0.813 0.813 0 0 0 113.807 46.622 A 0.616 0.616 0 0 0 113.411 46.79 A 0.498 0.498 0 0 0 113.301 46.946 Q 113.264 47.028 113.247 47.131 Z" id="right_labelLayer" stroke="#777777" fill="#777777" style="stroke:#777777;fill:#777777" vector-effect="non-scaling-stroke"/><path d="M 160.25 82.85 L 160.25 95 L 157.4 95 L 157.4 106.9 L 160.25 106.9 L 160.25 118.8 L 157.4 118.8 L 157.4 130.7 L 160.25 130.7 L 160.25 142.6 L 160.25 142.85 L 170.5 142.85 L 170.5 145.7 L 182.4 145.7 L 182.4 142.85 L 194.3 142.85 L 194.3 145.7 L 206.2 145.7 L 206.2 142.85 L 218.1 142.85 L 218.1 145.7 L 230 145.7 L 230 142.85 L 240.25 142.85 L 240.25 130.7 L 243.1 130.7 L 243.1 118.8 L 240.25 118.8 L 240.25 106.9 L 243.1 106.9 L 243.1 95 L 240.25 95 L 240.25 83.1 L 240.25 82.85 L 230 82.85 L 230 80 L 218.1 80 L 218.1 82.85 L 206.2 82.85 L 206.2 80 L 194.3 80 L 194.3 82.85 L 182.4 82.85 L 182.4 80 L 170.5 80 L 170.5 82.85 L 160.25 82.85 Z" id="bottom_outsideCutPath" stroke="#FF0000" stroke-width="0.1" style="stroke:#FF0000;stroke-width:0.1" vector-effect="non-scaling-stroke"/><path d="M 221.866 117.777 L 220.8 117.777 L 220.8 113.203 Q 220.8 112.676 220.659 112.315 A 1.287 1.287 0 0 0 220.441 111.942 Q 220.127 111.574 219.508 111.528 A 2.472 2.472 0 0 0 219.325 111.522 A 2.741 2.741 0 0 0 218.767 111.575 Q 218.435 111.644 218.186 111.803 A 1.41 1.41 0 0 0 217.856 112.093 A 1.76 1.76 0 0 0 217.557 112.633 Q 217.382 113.124 217.381 113.84 A 5.972 5.972 0 0 0 217.381 113.851 L 217.381 117.777 L 216.316 117.777 L 216.316 113.203 Q 216.316 112.676 216.175 112.315 A 1.287 1.287 0 0 0 215.956 111.942 A 1.117 1.117 0 0 0 215.443 111.608 Q 215.18 111.522 214.834 111.522 Q 214.135 111.522 213.697 111.814 A 1.396 1.396 0 0 0 213.368 112.122 A 1.786 1.786 0 0 0 213.103 112.625 Q 212.931 113.11 212.906 113.839 A 7.415 7.415 0 0 0 212.902 114.088 L 212.902 117.777 L 211.837 117.777 L 211.837 110.745 L 212.703 110.745 L 212.877 111.708 L 212.928 111.708 A 2.093 2.093 0 0 1 213.778 110.906 A 2.529 2.529 0 0 1 214.777 110.626 A 3.054 3.054 0 0 1 215.007 110.617 A 3.487 3.487 0 0 1 215.792 110.699 Q 216.274 110.81 216.611 111.075 A 1.818 1.818 0 0 1 217.163 111.81 L 217.214 111.81 A 2.224 2.224 0 0 1 218.052 110.979 A 2.671 2.671 0 0 1 218.125 110.938 A 2.696 2.696 0 0 1 219.114 110.637 A 3.361 3.361 0 0 1 219.485 110.617 Q 220.29 110.617 220.821 110.895 A 1.755 1.755 0 0 1 221.272 111.23 A 1.834 1.834 0 0 1 221.666 111.874 Q 221.772 112.158 221.822 112.511 A 4.885 4.885 0 0 1 221.866 113.19 L 221.866 117.777 Z M 179.699 116.873 L 179.622 116.873 L 179.398 117.777 L 178.634 117.777 L 178.634 107.794 L 179.699 107.794 L 179.699 110.219 Q 179.699 111.034 179.648 111.682 L 179.699 111.682 A 2.422 2.422 0 0 1 181.467 110.656 A 3.638 3.638 0 0 1 181.907 110.63 A 3.255 3.255 0 0 1 182.823 110.752 A 2.437 2.437 0 0 1 184.059 111.576 A 3.138 3.138 0 0 1 184.609 112.636 Q 184.826 113.335 184.826 114.255 A 6.245 6.245 0 0 1 184.743 115.306 Q 184.647 115.866 184.441 116.315 A 2.994 2.994 0 0 1 184.053 116.946 Q 183.28 117.906 181.907 117.906 A 3.231 3.231 0 0 1 181.095 117.807 A 2.811 2.811 0 0 1 180.652 117.652 A 2.359 2.359 0 0 1 179.699 116.873 Z M 197.857 116.898 L 197.857 117.713 A 1.048 1.048 0 0 1 197.733 117.762 Q 197.578 117.814 197.347 117.851 A 4.616 4.616 0 0 1 197.046 117.89 Q 196.904 117.904 196.776 117.905 A 2.731 2.731 0 0 1 196.74 117.906 A 2.782 2.782 0 0 1 195.921 117.795 Q 195.02 117.517 194.784 116.538 A 3.348 3.348 0 0 1 194.7 115.756 L 194.7 111.573 L 193.693 111.573 L 193.693 111.06 L 194.7 110.617 L 195.149 109.116 L 195.765 109.116 L 195.765 110.745 L 197.805 110.745 L 197.805 111.573 L 195.765 111.573 L 195.765 115.711 A 2.145 2.145 0 0 0 195.796 116.088 Q 195.833 116.295 195.914 116.458 A 1.033 1.033 0 0 0 196.067 116.687 A 0.989 0.989 0 0 0 196.675 117.01 A 1.424 1.424 0 0 0 196.894 117.027 A 3.498 3.498 0 0 0 197.407 116.99 A 3.226 3.226 0 0 0 197.44 116.985 A 5.762 5.762 0 0 0 197.594 116.959 Q 197.751 116.929 197.857 116.898 Z M 202.496 116.898 L 202.496 117.713 A 1.048 1.048 0 0 1 202.371 117.762 Q 202.217 117.814 201.986 117.851 A 4.616 4.616 0 0 1 201.685 117.89 Q 201.543 117.904 201.415 117.905 A 2.731 2.731 0 0 1 201.379 117.906 A 2.782 2.782 0 0 1 200.559 117.795 Q 199.658 117.517 199.422 116.538 A 3.348 3.348 0 0 1 199.339 115.756 L 199.339 111.573 L 198.332 111.573 L 198.332 111.06 L 199.339 110.617 L 199.788 109.116 L 200.404 109.116 L 200.404 110.745 L 202.444 110.745 L 202.444 111.573 L 200.404 111.573 L 200.404 115.711 A 2.145 2.145 0 0 0 200.435 116.088 Q 200.472 116.295 200.553 116.458 A 1.033 1.033 0 0 0 200.706 116.687 A 0.989 0.989 0 0 0 201.314 117.01 A 1.424 1.424 0 0 0 201.533 117.027 A 3.498 3.498 0 0 0 202.046 116.99 A 3.226 3.226 0 0 0 202.079 116.985 A 5.762 5.762 0 0 0 202.232 116.959 Q 202.39 116.929 202.496 116.898 Z M 192.756 114.255 Q 192.756 115.974 191.89 116.94 A 2.839 2.839 0 0 1 190.219 117.845 A 4.136 4.136 0 0 1 189.497 117.906 A 3.42 3.42 0 0 1 188.503 117.766 A 2.966 2.966 0 0 1 187.822 117.463 A 2.883 2.883 0 0 1 186.77 116.344 A 3.501 3.501 0 0 1 186.693 116.193 A 3.94 3.94 0 0 1 186.362 115.118 A 5.328 5.328 0 0 1 186.295 114.255 Q 186.295 112.946 186.793 112.077 A 2.942 2.942 0 0 1 187.155 111.576 A 2.817 2.817 0 0 1 188.799 110.681 A 4.137 4.137 0 0 1 189.542 110.617 A 3.579 3.579 0 0 1 190.592 110.764 A 2.788 2.788 0 0 1 191.887 111.599 Q 192.712 112.53 192.754 114.086 A 6.25 6.25 0 0 1 192.756 114.255 Z M 209.97 114.255 Q 209.97 115.974 209.104 116.94 A 2.839 2.839 0 0 1 207.433 117.845 A 4.136 4.136 0 0 1 206.711 117.906 A 3.42 3.42 0 0 1 205.717 117.766 A 2.966 2.966 0 0 1 205.036 117.463 A 2.883 2.883 0 0 1 203.985 116.344 A 3.501 3.501 0 0 1 203.907 116.193 A 3.94 3.94 0 0 1 203.576 115.118 A 5.328 5.328 0 0 1 203.509 114.255 Q 203.509 112.946 204.008 112.077 A 2.942 2.942 0 0 1 204.369 111.576 A 2.817 2.817 0 0 1 206.013 110.681 A 4.137 4.137 0 0 1 206.756 110.617 A 3.579 3.579 0 0 1 207.806 110.764 A 2.788 2.788 0 0 1 209.101 111.599 Q 209.926 112.53 209.968 114.086 A 6.25 6.25 0 0 1 209.97 114.255 Z M 187.399 114.255 A 5.393 5.393 0 0 0 187.45 115.025 Q 187.507 115.417 187.626 115.733 A 2.234 2.234 0 0 0 187.938 116.308 Q 188.477 117.014 189.522 117.014 A 2.474 2.474 0 0 0 190.175 116.933 A 1.722 1.722 0 0 0 191.11 116.311 Q 191.514 115.789 191.617 114.906 A 5.61 5.61 0 0 0 191.653 114.255 A 5.314 5.314 0 0 0 191.602 113.498 Q 191.487 112.702 191.11 112.218 A 1.752 1.752 0 0 0 190.021 111.568 A 2.686 2.686 0 0 0 189.51 111.522 A 2.535 2.535 0 0 0 188.879 111.596 A 1.696 1.696 0 0 0 187.931 112.208 A 2.202 2.202 0 0 0 187.589 112.87 Q 187.399 113.442 187.399 114.255 Z M 204.613 114.255 A 5.393 5.393 0 0 0 204.664 115.025 Q 204.721 115.417 204.84 115.733 A 2.234 2.234 0 0 0 205.152 116.308 Q 205.691 117.014 206.737 117.014 A 2.474 2.474 0 0 0 207.389 116.933 A 1.722 1.722 0 0 0 208.325 116.311 Q 208.728 115.789 208.831 114.906 A 5.61 5.61 0 0 0 208.867 114.255 A 5.314 5.314 0 0 0 208.816 113.498 Q 208.701 112.702 208.325 112.218 A 1.752 1.752 0 0 0 207.235 111.568 A 2.686 2.686 0 0 0 206.724 111.522 A 2.535 2.535 0 0 0 206.093 111.596 A 1.696 1.696 0 0 0 205.145 112.208 A 2.202 2.202 0 0 0 204.803 112.87 Q 204.613 113.442 204.613 114.255 Z M 180.592 111.786 A 1.416 1.416 0 0 0 180.181 112.147 Q 179.758 112.697 179.707 113.908 A 8.206 8.206 0 0 0 179.699 114.255 A 7.042 7.042 0 0 0 179.734 114.983 Q 179.831 115.907 180.194 116.375 Q 180.636 116.948 181.559 117.007 A 3.425 3.425 0 0 0 181.778 117.014 A 2.123 2.123 0 0 0 182.381 116.933 A 1.532 1.532 0 0 0 183.241 116.298 A 2.445 2.445 0 0 0 183.544 115.644 Q 183.639 115.333 183.683 114.957 A 6.103 6.103 0 0 0 183.722 114.242 Q 183.722 112.869 183.241 112.195 A 1.553 1.553 0 0 0 182.252 111.57 A 2.463 2.463 0 0 0 181.753 111.522 Q 181.044 111.522 180.592 111.786 Z" id="bottom_labelLayer" stroke="#777777" fill="#777777" style="stroke:#777777;fill:#777777" vector-effect="non-scaling-stroke"/></g></svg>