<?xml version="1.0" encoding="UTF-8" standalone="no"?>
<svg
   xmlns:dc="http://purl.org/dc/elements/1.1/"
   xmlns:cc="http://creativecommons.org/ns#"
   xmlns:rdf="http://www.w3.org/1999/02/22-rdf-syntax-ns#"
   xmlns:svg="http://www.w3.org/2000/svg"
   xmlns="http://www.w3.org/2000/svg"
   xmlns:sodipodi="http://sodipodi.sourceforge.net/DTD/sodipodi-0.dtd"
   xmlns:inkscape="http://www.inkscape.org/namespaces/inkscape"
   width="300mm"
   height="300mm"
   viewBox="0 0 300 300"
   version="1.1"
   id="svg8"
   inkscape:version="1.0.2-2 (e86c870879, 2021-01-15)"
   sodipodi:docname="box for clock 1.svg">
  <defs
     id="defs2" />
  <sodipodi:namedview
     id="base"
     pagecolor="#ffffff"
     bordercolor="#666666"
     borderopacity="1.0"
     inkscape:pageopacity="0.0"
     inkscape:pageshadow="2"
     inkscape:zoom="1.3151271"
     inkscape:cx="419.69064"
     inkscape:cy="315.96504"
     inkscape:document-units="mm"
     inkscape:current-layer="layer1"
     inkscape:document-rotation="0"
     showgrid="false"
     inkscape:window-width="1920"
     inkscape:window-height="1001"
     inkscape:window-x="-9"
     inkscape:window-y="-9"
     inkscape:window-maximized="1" />
  <metadata
     id="metadata5">
    <rdf:RDF>
      <cc:Work
         rdf:about="">
        <dc:format>image/svg+xml</dc:format>
        <dc:type
           rdf:resource="http://purl.org/dc/dcmitype/StillImage" />
        <dc:title></dc:title>
      </cc:Work>
    </rdf:RDF>
  </metadata>
  <g
     inkscape:label="Layer 1"
     inkscape:groupmode="layer"
     id="layer1">
    <path
       d="m 3.49981,109.32496 v 11.2 h 2.85 v 11.9 h -2.85 v 11.9 h 2.85 v 11.9 h -2.85 v 11.9 h 2.85 v 11.9 h -2.85 v 11.9 h 2.85 v 11.9 h -2.85 v 11.2 h 13.1 v -2.85 h 11.9 v 2.85 h 11.9 v -2.85 h 11.9 v 2.85 h 11.9 v -2.85 h 11.9 v 2.85 h 13.1 v -11.2 h -2.85 v -11.9 h 2.85 v -11.9 h -2.85 v -11.9 h 2.85 v -11.9 h -2.85 v -11.9 h 2.85 v -11.9 h -2.85 v -11.9 h 2.85 v -11.2 h -13.1 v 2.85 h -11.9 v -2.85 h -11.9 v 2.85 h -11.9 v -2.85 h -11.9 v 2.85 h -11.9 v -2.85 z"
       id="front_outsideCutPath"
       stroke="#FF0000"
       stroke-width="0.1"
       style="font-size:12px;fill:none;fill-rule:evenodd;stroke:#ff0000;stroke-width:0.1;stroke-linecap:round"
       vector-effect="non-scaling-stroke" />
    <path
       d="m 58.84081,168.64796 h -1.389 v -5.933 a 3.927,3.927 0 0 0 -0.045,-0.616 q -0.052,-0.324 -0.163,-0.583 a 1.653,1.653 0 0 0 -0.303,-0.475 1.566,1.566 0 0 0 -0.642,-0.41 q -0.404,-0.143 -0.956,-0.143 a 4.205,4.205 0 0 0 -0.787,0.069 q -0.852,0.163 -1.322,0.71 -0.612,0.711 -0.665,2.267 a 8.9,8.9 0 0 0 -0.005,0.302 v 4.812 h -1.389 v -9.172 h 1.13 l 0.226,1.255 h 0.067 a 2.813,2.813 0 0 1 1.101,-1.002 3.383,3.383 0 0 1 0.095,-0.048 3.762,3.762 0 0 1 1.339,-0.357 4.549,4.549 0 0 1 0.377,-0.016 5.485,5.485 0 0 1 0.934,0.075 q 0.978,0.169 1.56,0.725 a 2.408,2.408 0 0 1 0.587,0.921 q 0.14,0.379 0.202,0.849 a 6.063,6.063 0 0 1 0.048,0.786 z m -26.689,-9.172 v 1.079 h -2.335 v 8.093 h -1.39 v -8.093 h -1.64 v -0.627 l 1.64,-0.502 v -0.511 a 5.631,5.631 0 0 1 0.132,-1.276 q 0.406,-1.74 2.07,-2.042 a 4.223,4.223 0 0 1 0.753,-0.063 q 0.566,0 1.283,0.177 a 8.993,8.993 0 0 1 0.424,0.116 l -0.36,1.113 q -0.57,-0.184 -1.023,-0.238 a 2.988,2.988 0 0 0 -0.349,-0.022 1.874,1.874 0 0 0 -0.452,0.052 1.203,1.203 0 0 0 -0.712,0.472 q -0.341,0.474 -0.373,1.469 a 6.56,6.56 0 0 0 -0.003,0.209 v 0.594 z m 33.761,8.026 v 1.063 a 1.367,1.367 0 0 1 -0.162,0.064 q -0.201,0.067 -0.503,0.116 a 6.022,6.022 0 0 1 -0.393,0.051 q -0.185,0.017 -0.351,0.019 a 3.562,3.562 0 0 1 -0.047,10e-4 3.629,3.629 0 0 1 -1.07,-0.144 q -1.592,-0.491 -1.592,-2.66 v -5.457 h -1.314 v -0.669 l 1.314,-0.578 0.586,-1.958 h 0.804 v 2.126 h 2.661 v 1.079 h -2.661 v 5.398 a 2.798,2.798 0 0 0 0.04,0.492 q 0.048,0.269 0.154,0.483 a 1.348,1.348 0 0 0 0.199,0.298 1.291,1.291 0 0 0 0.793,0.422 1.857,1.857 0 0 0 0.286,0.021 q 0.369,0 0.712,-0.054 a 7.515,7.515 0 0 0 0.2,-0.035 q 0.192,-0.035 0.325,-0.073 a 2.083,2.083 0 0 0 0.019,-0.005 z m -26.806,-8.093 -0.193,1.289 q -0.569,-0.126 -1.004,-0.126 a 2.407,2.407 0 0 0 -1.779,0.768 3.293,3.293 0 0 0 -0.125,0.136 3.173,3.173 0 0 0 -0.766,1.781 4.217,4.217 0 0 0 -0.025,0.47 v 4.921 h -1.389 v -9.172 h 1.146 l 0.159,1.699 h 0.067 q 0.511,-0.896 1.23,-1.381 0.72,-0.486 1.582,-0.486 a 6.378,6.378 0 0 1 0.571,0.025 4.655,4.655 0 0 1 0.526,0.076 z m 9.505,6.041 a 7.176,7.176 0 0 0 0.127,-1.396 8.154,8.154 0 0 0 -0.003,-0.221 q -0.054,-2.029 -1.131,-3.244 a 3.637,3.637 0 0 0 -1.688,-1.089 4.668,4.668 0 0 0 -1.371,-0.192 q -1.991,0 -3.113,1.252 a 3.838,3.838 0 0 0 -0.471,0.653 q -0.65,1.133 -0.65,2.841 a 6.95,6.95 0 0 0 0.087,1.125 5.139,5.139 0 0 0 0.432,1.402 4.566,4.566 0 0 0 0.101,0.198 3.761,3.761 0 0 0 1.372,1.459 3.868,3.868 0 0 0 0.887,0.395 4.461,4.461 0 0 0 1.297,0.183 5.395,5.395 0 0 0 0.942,-0.079 3.704,3.704 0 0 0 2.18,-1.181 3.876,3.876 0 0 0 0.461,-0.634 q 0.376,-0.644 0.541,-1.472 z m -6.861,-1.396 a 7.035,7.035 0 0 0 0.067,1.005 q 0.15,1.036 0.636,1.673 a 2.277,2.277 0 0 0 1.483,0.873 3.45,3.45 0 0 0 0.584,0.047 3.227,3.227 0 0 0 0.852,-0.105 2.246,2.246 0 0 0 1.22,-0.811 2.982,2.982 0 0 0 0.464,-0.905 q 0.243,-0.743 0.243,-1.777 0,-1.122 -0.291,-1.898 a 2.86,2.86 0 0 0 -0.416,-0.76 2.285,2.285 0 0 0 -1.421,-0.847 3.504,3.504 0 0 0 -0.667,-0.061 3.306,3.306 0 0 0 -0.824,0.097 2.213,2.213 0 0 0 -1.235,0.799 2.872,2.872 0 0 0 -0.447,0.863 q -0.248,0.746 -0.248,1.807 z"
       id="front_labelLayer"
       stroke="#777777"
       fill="#777777"
       style="font-size:12px;fill:#777777;fill-rule:evenodd;stroke:none;stroke-width:0.25mm;stroke-linecap:round"
       vector-effect="non-scaling-stroke" />
    <path
       d="m 95.04981,109.32496 v 11.2 h -2.85 v 11.9 h 2.85 v 11.9 h -2.85 v 11.9 h 2.85 v 11.9 h -2.85 v 11.9 h 2.85 v 11.9 h -2.85 v 11.9 h 2.85 v 11.2 h 12.15 v -2.85 h 11.9 v 2.85 h 11.9 v -2.85 h 11.9 v 2.85 h 11.9 0.25 v -11.2 h 2.85 v -11.9 h -2.85 v -11.9 h 2.85 v -11.9 h -2.85 v -11.9 h 2.85 v -11.9 h -2.85 v -11.9 h 2.85 v -11.9 h -2.85 v -11.2 h -12.15 v 2.85 h -11.9 v -2.85 h -11.9 v 2.85 h -11.9 v -2.85 h -11.9 z"
       id="left_outsideCutPath"
       stroke="#FF0000"
       stroke-width="0.1"
       style="font-size:12px;fill:none;fill-rule:evenodd;stroke:#ff0000;stroke-width:0.1;stroke-linecap:round"
       vector-effect="non-scaling-stroke" />
    <path
       d="m 129.72381,160.10596 v 0.827 h -1.79 v 6.205 h -1.065 v -6.205 h -1.258 v -0.481 l 1.258,-0.385 v -0.391 a 4.317,4.317 0 0 1 0.101,-0.978 q 0.377,-1.614 2.164,-1.614 a 3.43,3.43 0 0 1 0.485,0.037 q 0.378,0.054 0.824,0.187 l -0.276,0.854 a 5.172,5.172 0 0 0 -0.402,-0.114 q -0.204,-0.047 -0.383,-0.069 a 2.29,2.29 0 0 0 -0.267,-0.016 q -0.604,0 -0.892,0.401 -0.289,0.401 -0.289,1.286 v 0.456 z m -4.985,3.034 v 0.674 h -4.844 a 4.275,4.275 0 0 0 0.075,0.716 q 0.077,0.39 0.231,0.697 a 2,2 0 0 0 0.319,0.467 1.935,1.935 0 0 0 1.016,0.573 2.932,2.932 0 0 0 0.656,0.069 5.625,5.625 0 0 0 2.106,-0.418 6.446,6.446 0 0 0 0.139,-0.057 v 0.949 a 6.394,6.394 0 0 1 -0.582,0.221 4.89,4.89 0 0 1 -0.486,0.129 q -0.392,0.082 -0.909,0.101 a 8.677,8.677 0 0 1 -0.307,0.005 4.139,4.139 0 0 1 -1.035,-0.123 2.931,2.931 0 0 1 -1.425,-0.827 3.134,3.134 0 0 1 -0.75,-1.377 q -0.13,-0.488 -0.149,-1.067 a 6.084,6.084 0 0 1 -0.003,-0.193 5.593,5.593 0 0 1 0.104,-1.109 q 0.191,-0.943 0.733,-1.592 0.838,-1.001 2.249,-1.001 1.322,0 2.092,0.87 a 2.978,2.978 0 0 1 0.675,1.361 4.335,4.335 0 0 1 0.095,0.932 z m 9.502,3.119 v 0.814 a 1.048,1.048 0 0 1 -0.124,0.05 q -0.155,0.051 -0.386,0.088 a 4.616,4.616 0 0 1 -0.301,0.04 q -0.142,0.013 -0.269,0.015 a 2.731,2.731 0 0 1 -0.036,0 2.782,2.782 0 0 1 -0.82,-0.11 q -0.901,-0.278 -1.137,-1.257 a 3.348,3.348 0 0 1 -0.084,-0.782 v -4.184 h -1.007 v -0.513 l 1.007,-0.443 0.449,-1.501 h 0.616 v 1.63 h 2.041 v 0.827 h -2.041 v 4.139 a 2.145,2.145 0 0 0 0.031,0.376 q 0.037,0.207 0.118,0.371 a 1.033,1.033 0 0 0 0.153,0.228 0.989,0.989 0 0 0 0.608,0.324 1.424,1.424 0 0 0 0.22,0.016 3.498,3.498 0 0 0 0.512,-0.037 3.226,3.226 0 0 0 0.033,-0.005 5.762,5.762 0 0 0 0.154,-0.026 q 0.157,-0.029 0.263,-0.06 z m -17.317,-9.105 v 9.984 h -1.065 v -9.984 z m 2.996,5.794 h 3.677 a 3.629,3.629 0 0 0 -0.044,-0.584 q -0.097,-0.591 -0.405,-0.959 a 1.459,1.459 0 0 0 -0.879,-0.5 2.189,2.189 0 0 0 -0.405,-0.036 2.099,2.099 0 0 0 -0.606,0.084 1.622,1.622 0 0 0 -0.744,0.468 2.104,2.104 0 0 0 -0.418,0.706 q -0.133,0.364 -0.176,0.821 z"
       id="left_labelLayer"
       stroke="#777777"
       fill="#777777"
       style="font-size:12px;fill:#777777;fill-rule:evenodd;stroke:none;stroke-width:0.25mm;stroke-linecap:round"
       vector-effect="non-scaling-stroke" />
    <path
       d="m 163.74981,152.17496 v 12.15 h -2.85 v 11.9 h 2.85 v 11.9 h -2.85 v 11.9 h 2.85 v 11.9 0.25 h 10.25 v 2.85 h 11.9 v -2.85 h 11.9 v 2.85 h 11.9 v -2.85 h 11.9 v 2.85 h 11.9 v -2.85 h 10.25 v -12.15 h 2.85 v -11.9 h -2.85 v -11.9 h 2.85 v -11.9 h -2.85 v -11.9 -0.25 h -10.25 v -2.85 h -11.9 v 2.85 h -11.9 v -2.85 h -11.9 v 2.85 h -11.9 v -2.85 h -11.9 v 2.85 z"
       id="top_outsideCutPath"
       stroke="#FF0000"
       stroke-width="0.1"
       style="font-size:12px;fill:none;fill-rule:evenodd;stroke:#ff0000;stroke-width:0.1;stroke-linecap:round"
       vector-effect="non-scaling-stroke" />
    <path
       d="m 208.47181,184.02296 h -0.077 q 0.077,0.616 0.077,1.168 v 2.893 h -1.065 v -10.188 h 0.866 l 0.148,0.962 h 0.051 a 2.867,2.867 0 0 1 0.415,-0.471 2.217,2.217 0 0 1 0.541,-0.363 2.667,2.667 0 0 1 0.765,-0.224 3.452,3.452 0 0 1 0.486,-0.033 3.265,3.265 0 0 1 0.923,0.123 2.413,2.413 0 0 1 1.236,0.833 q 0.761,0.956 0.761,2.682 a 6.245,6.245 0 0 1 -0.083,1.051 q -0.096,0.56 -0.302,1.009 a 2.994,2.994 0 0 1 -0.389,0.632 q -0.773,0.959 -2.146,0.959 a 3.231,3.231 0 0 1 -0.812,-0.099 2.811,2.811 0 0 1 -0.442,-0.155 2.359,2.359 0 0 1 -0.953,-0.779 z m -10.407,0.025 v 0.815 a 1.048,1.048 0 0 1 -0.124,0.05 q -0.154,0.051 -0.386,0.088 a 4.616,4.616 0 0 1 -0.301,0.039 q -0.142,0.014 -0.269,0.016 a 2.731,2.731 0 0 1 -0.036,0 2.782,2.782 0 0 1 -0.82,-0.111 q -0.901,-0.278 -1.137,-1.256 a 3.348,3.348 0 0 1 -0.083,-0.783 v -4.183 h -1.008 v -0.513 l 1.008,-0.443 0.449,-1.501 h 0.616 v 1.63 h 2.04 v 0.827 h -2.04 v 4.139 a 2.145,2.145 0 0 0 0.031,0.376 q 0.037,0.207 0.118,0.37 a 1.033,1.033 0 0 0 0.152,0.229 0.989,0.989 0 0 0 0.609,0.324 1.424,1.424 0 0 0 0.219,0.016 3.498,3.498 0 0 0 0.512,-0.037 3.226,3.226 0 0 0 0.033,-0.005 5.762,5.762 0 0 0 0.154,-0.026 q 0.157,-0.03 0.263,-0.061 z m 7.475,-2.643 q 0,1.72 -0.866,2.685 a 2.839,2.839 0 0 1 -1.671,0.905 4.136,4.136 0 0 1 -0.722,0.061 3.42,3.42 0 0 1 -0.994,-0.14 2.966,2.966 0 0 1 -0.681,-0.303 2.883,2.883 0 0 1 -1.052,-1.118 3.501,3.501 0 0 1 -0.077,-0.152 3.94,3.94 0 0 1 -0.331,-1.075 5.328,5.328 0 0 1 -0.067,-0.863 q 0,-1.309 0.498,-2.177 a 2.942,2.942 0 0 1 0.362,-0.502 2.817,2.817 0 0 1 1.644,-0.895 4.137,4.137 0 0 1 0.743,-0.064 3.579,3.579 0 0 1 1.05,0.147 2.788,2.788 0 0 1 1.295,0.835 q 0.825,0.931 0.867,2.487 a 6.25,6.25 0 0 1 0.002,0.169 z m -5.357,0 a 5.393,5.393 0 0 0 0.051,0.771 q 0.057,0.391 0.176,0.708 a 2.234,2.234 0 0 0 0.312,0.574 q 0.539,0.706 1.584,0.706 a 2.474,2.474 0 0 0 0.653,-0.081 1.722,1.722 0 0 0 0.935,-0.622 q 0.403,-0.522 0.507,-1.405 a 5.61,5.61 0 0 0 0.035,-0.651 5.314,5.314 0 0 0 -0.05,-0.757 q -0.115,-0.796 -0.492,-1.28 a 1.752,1.752 0 0 0 -1.089,-0.65 2.686,2.686 0 0 0 -0.511,-0.046 2.535,2.535 0 0 0 -0.632,0.074 1.696,1.696 0 0 0 -0.947,0.612 2.202,2.202 0 0 0 -0.342,0.662 q -0.19,0.572 -0.19,1.385 z m 8.289,-0.237 v 0.237 a 7.042,7.042 0 0 0 0.035,0.728 q 0.096,0.924 0.459,1.393 0.443,0.572 1.366,0.631 a 3.425,3.425 0 0 0 0.219,0.007 q 0.876,0 1.387,-0.682 a 2.122,2.122 0 0 0 0.04,-0.056 q 0.517,-0.738 0.517,-2.034 0,-0.863 -0.222,-1.462 a 2.258,2.258 0 0 0 -0.295,-0.556 1.657,1.657 0 0 0 -1.211,-0.69 2.291,2.291 0 0 0 -0.242,-0.012 3.069,3.069 0 0 0 -0.573,0.05 q -0.644,0.122 -0.986,0.547 a 1.825,1.825 0 0 0 -0.285,0.52 q -0.181,0.49 -0.205,1.215 a 6.778,6.778 0 0 0 -0.004,0.164 z"
       id="top_labelLayer"
       stroke="#777777"
       fill="#777777"
       style="font-size:12px;fill:#777777;fill-rule:evenodd;stroke:none;stroke-width:0.25mm;stroke-linecap:round"
       vector-effect="non-scaling-stroke" />
    <path
       d="M 3.49981,0.62496178 V 11.824962 h 2.85 v 11.9 h -2.85 v 11.9 h 2.85 v 11.9 h -2.85 v 11.9 h 2.85 v 11.9 h -2.85 v 11.9 h 2.85 v 11.9 h -2.85 v 11.199998 h 13.1 v -2.85 h 11.9 v 2.85 h 11.9 v -2.85 h 11.9 v 2.85 h 11.9 v -2.85 h 11.9 v 2.85 h 13.1 V 95.124962 h -2.85 v -11.9 h 2.85 v -11.9 h -2.85 v -11.9 h 2.85 v -11.9 h -2.85 v -11.9 h 2.85 v -11.9 h -2.85 v -11.9 h 2.85 V 0.62496178 h -13.1 V 3.4749618 h -11.9 V 0.62496178 h -11.9 V 3.4749618 h -11.9 V 0.62496178 h -11.9 V 3.4749618 h -11.9 V 0.62496178 Z"
       id="back_outsideCutPath"
       stroke="#FF0000"
       stroke-width="0.1"
       style="font-size:12px;fill:none;fill-rule:evenodd;stroke:#ff0000;stroke-width:0.1;stroke-linecap:round"
       vector-effect="non-scaling-stroke" />
    <path
       d="m 58.08381,55.206962 h 0.066 q 0.276,-0.391 0.772,-0.968 a 29.852,29.852 0 0 1 0.325,-0.371 l 2.963,-3.138 h 1.648 l -3.716,3.908 3.976,5.264 h -1.683 l -3.238,-4.335 -1.047,0.904 v 3.431 h -1.372 v -13.022 h 1.372 v 6.905 q 0,0.46 -0.066,1.422 z m -28.112,3.515 h -0.101 l -0.293,1.18 h -0.996 v -13.022 h 1.39 v 3.164 a 28.965,28.965 0 0 1 -0.016,0.978 q -0.017,0.494 -0.051,0.93 h 0.067 a 3.159,3.159 0 0 1 2.305,-1.339 4.745,4.745 0 0 1 0.574,-0.034 4.246,4.246 0 0 1 1.195,0.16 3.179,3.179 0 0 1 1.612,1.075 q 1.001,1.234 1.001,3.494 0,2.259 -1.009,3.511 a 3.289,3.289 0 0 1 -2.337,1.229 4.712,4.712 0 0 1 -0.462,0.022 4.214,4.214 0 0 1 -1.059,-0.129 3.667,3.667 0 0 1 -0.578,-0.202 q -0.74,-0.33 -1.242,-1.017 z m 15.784,1.18 h -1.03 l -0.276,-1.305 h -0.067 q -0.484,0.608 -0.967,0.94 a 2.56,2.56 0 0 1 -0.401,0.227 3.204,3.204 0 0 1 -0.662,0.209 q -0.321,0.067 -0.693,0.087 a 6.252,6.252 0 0 1 -0.348,0.01 4.263,4.263 0 0 1 -0.868,-0.083 q -0.762,-0.159 -1.271,-0.62 a 2.284,2.284 0 0 1 -0.688,-1.205 3.496,3.496 0 0 1 -0.086,-0.795 q 0,-2.689 4.162,-2.902 a 13.571,13.571 0 0 1 0.282,-0.011 l 1.557,-0.05 v -0.569 q 0,-1.08 -0.464,-1.595 a 1.41,1.41 0 0 0 -0.578,-0.376 q -0.38,-0.138 -0.908,-0.138 a 4.523,4.523 0 0 0 -1.041,0.13 q -0.728,0.172 -1.553,0.573 l -0.427,-1.063 a 6.406,6.406 0 0 1 1.236,-0.508 7.291,7.291 0 0 1 0.249,-0.07 6.434,6.434 0 0 1 1.62,-0.209 5.868,5.868 0 0 1 0.893,0.064 q 0.98,0.151 1.538,0.664 0.62,0.571 0.754,1.683 a 5.467,5.467 0 0 1 0.037,0.652 z m 8.98,-8.863 -0.427,1.181 a 6.18,6.18 0 0 0 -0.67,-0.223 7.382,7.382 0 0 0 -0.334,-0.083 5.739,5.739 0 0 0 -0.437,-0.081 q -0.284,-0.04 -0.526,-0.04 a 3.082,3.082 0 0 0 -1.251,0.235 q -1.312,0.578 -1.509,2.578 a 7.677,7.677 0 0 0 -0.035,0.752 6.728,6.728 0 0 0 0.067,0.98 q 0.073,0.496 0.227,0.9 a 2.882,2.882 0 0 0 0.388,0.714 2.207,2.207 0 0 0 1.43,0.855 3.361,3.361 0 0 0 0.591,0.049 5.816,5.816 0 0 0 1.604,-0.233 7.181,7.181 0 0 0 0.748,-0.261 v 1.231 q -0.791,0.409 -1.933,0.467 a 7.619,7.619 0 0 1 -0.385,0.01 5.192,5.192 0 0 1 -1.263,-0.145 3.521,3.521 0 0 1 -1.821,-1.081 4.019,4.019 0 0 1 -0.836,-1.535 q -0.256,-0.848 -0.256,-1.934 a 7.665,7.665 0 0 1 0.118,-1.394 q 0.244,-1.319 0.99,-2.163 a 3.597,3.597 0 0 1 1.97,-1.133 5.453,5.453 0 0 1 1.19,-0.123 q 0.661,0 1.322,0.143 a 6.934,6.934 0 0 1 0.386,0.094 q 0.393,0.108 0.652,0.24 z m -22.086,0.703 a 3.904,3.904 0 0 0 -0.756,0.069 q -0.431,0.085 -0.758,0.276 a 1.848,1.848 0 0 0 -0.537,0.471 q -0.551,0.717 -0.618,2.297 a 10.704,10.704 0 0 0 -0.009,0.453 9.186,9.186 0 0 0 0.045,0.949 q 0.126,1.205 0.599,1.817 0.578,0.746 1.781,0.824 a 4.467,4.467 0 0 0 0.286,0.008 2.77,2.77 0 0 0 0.787,-0.105 1.998,1.998 0 0 0 1.121,-0.828 3.189,3.189 0 0 0 0.395,-0.853 q 0.233,-0.763 0.233,-1.829 0,-1.791 -0.628,-2.67 a 2.026,2.026 0 0 0 -1.289,-0.816 3.213,3.213 0 0 0 -0.652,-0.063 z m 11.717,4.478 v -0.829 l -1.39,0.059 q -1.384,0.049 -2.122,0.375 a 2.134,2.134 0 0 0 -0.267,0.14 1.482,1.482 0 0 0 -0.707,1.075 2.194,2.194 0 0 0 -0.025,0.343 1.985,1.985 0 0 0 0.049,0.456 q 0.1,0.427 0.407,0.691 a 1.512,1.512 0 0 0 0.566,0.301 q 0.225,0.066 0.493,0.085 a 3.125,3.125 0 0 0 0.217,0.007 q 1.297,0 2.038,-0.711 0.741,-0.712 0.741,-1.992 z"
       id="back_labelLayer"
       stroke="#777777"
       fill="#777777"
       style="font-size:12px;fill:#777777;fill-rule:evenodd;stroke:none;stroke-width:0.25mm;stroke-linecap:round"
       vector-effect="non-scaling-stroke" />
    <path
       d="M 95.04981,0.62496178 V 11.824962 h -2.85 v 11.9 h 2.85 v 11.9 h -2.85 v 11.9 h 2.85 v 11.9 h -2.85 v 11.9 h 2.85 v 11.9 h -2.85 v 11.9 h 2.85 v 11.199998 h 12.15 v -2.85 h 11.9 v 2.85 h 11.9 v -2.85 h 11.9 v 2.85 h 11.9 0.25 V 95.124962 h 2.85 v -11.9 h -2.85 v -11.9 h 2.85 v -11.9 h -2.85 v -11.9 h 2.85 v -11.9 h -2.85 v -11.9 h 2.85 v -11.9 h -2.85 V 0.62496178 h -12.15 V 3.4749618 h -11.9 V 0.62496178 h -11.9 V 3.4749618 h -11.9 V 0.62496178 h -11.9 z"
       id="right_outsideCutPath"
       stroke="#FF0000"
       stroke-width="0.1"
       style="font-size:12px;fill:none;fill-rule:evenodd;stroke:#ff0000;stroke-width:0.1;stroke-linecap:round"
       vector-effect="non-scaling-stroke" />
    <path
       d="m 133.22081,56.887962 h -1.065 v -4.549 a 3.011,3.011 0 0 0 -0.035,-0.472 q -0.039,-0.248 -0.124,-0.446 a 1.267,1.267 0 0 0 -0.233,-0.365 1.201,1.201 0 0 0 -0.492,-0.314 q -0.194,-0.068 -0.431,-0.094 a 2.824,2.824 0 0 0 -0.302,-0.015 q -0.725,0 -1.194,0.257 a 1.491,1.491 0 0 0 -0.426,0.346 q -0.51,0.603 -0.51,1.976 v 3.676 h -1.065 v -9.983 h 1.065 v 3.022 a 9.581,9.581 0 0 1 -0.007,0.368 q -0.006,0.172 -0.02,0.321 a 4.166,4.166 0 0 1 -0.025,0.216 h 0.065 a 2.128,2.128 0 0 1 0.745,-0.718 2.6,2.6 0 0 1 0.15,-0.081 q 0.58,-0.292 1.325,-0.292 0.848,0 1.417,0.265 a 1.92,1.92 0 0 1 0.517,0.348 1.854,1.854 0 0 1 0.457,0.718 q 0.188,0.509 0.188,1.229 z m -9.753,-7.032 h 2.432 v 0.674 l -1.302,0.154 a 1.731,1.731 0 0 1 0.149,0.223 q 0.066,0.115 0.126,0.253 a 3.283,3.283 0 0 1 0.045,0.111 2.049,2.049 0 0 1 0.122,0.49 2.631,2.631 0 0 1 0.02,0.328 q 0,1.033 -0.706,1.649 a 2.362,2.362 0 0 1 -0.929,0.489 q -0.352,0.099 -0.77,0.121 a 4.626,4.626 0 0 1 -0.239,0.006 3.423,3.423 0 0 1 -0.396,-0.022 2.89,2.89 0 0 1 -0.194,-0.029 q -0.388,0.205 -0.555,0.471 a 0.801,0.801 0 0 0 -0.125,0.433 0.552,0.552 0 0 0 0.028,0.181 q 0.051,0.148 0.195,0.237 a 0.591,0.591 0 0 0 0.014,0.009 q 0.238,0.138 0.815,0.138 h 1.245 a 4.36,4.36 0 0 1 0.662,0.047 q 0.346,0.053 0.626,0.167 a 1.925,1.925 0 0 1 0.467,0.267 1.558,1.558 0 0 1 0.579,0.993 2.34,2.34 0 0 1 0.033,0.406 q 0,1.145 -0.9,1.756 a 2.532,2.532 0 0 1 -0.036,0.024 3.194,3.194 0 0 1 -0.824,0.374 q -0.406,0.123 -0.901,0.183 a 8.442,8.442 0 0 1 -1.009,0.056 5.967,5.967 0 0 1 -0.8,-0.05 q -0.813,-0.11 -1.327,-0.463 a 1.697,1.697 0 0 1 -0.547,-0.594 q -0.175,-0.325 -0.197,-0.737 a 2.249,2.249 0 0 1 -0.003,-0.119 1.629,1.629 0 0 1 0.411,-1.11 q 0.41,-0.469 1.154,-0.635 -0.269,-0.122 -0.452,-0.379 a 0.987,0.987 0 0 1 -0.181,-0.534 1.223,1.223 0 0 1 -0.002,-0.063 1.218,1.218 0 0 1 0.062,-0.392 1.079,1.079 0 0 1 0.144,-0.281 q 0.155,-0.219 0.445,-0.426 a 3.346,3.346 0 0 1 0.203,-0.133 q -0.546,-0.224 -0.889,-0.763 a 2.202,2.202 0 0 1 -0.338,-1.061 2.687,2.687 0 0 1 -0.005,-0.171 3.077,3.077 0 0 1 0.081,-0.728 2.025,2.025 0 0 1 0.612,-1.052 q 0.693,-0.626 1.963,-0.626 a 4.082,4.082 0 0 1 0.54,0.034 3.109,3.109 0 0 1 0.454,0.094 z m 15.174,6.153 v 0.815 a 1.048,1.048 0 0 1 -0.124,0.049 q -0.154,0.052 -0.386,0.089 a 4.616,4.616 0 0 1 -0.301,0.039 q -0.142,0.014 -0.269,0.015 a 2.731,2.731 0 0 1 -0.036,10e-4 2.782,2.782 0 0 1 -0.82,-0.111 q -0.901,-0.278 -1.137,-1.257 a 3.348,3.348 0 0 1 -0.083,-0.782 v -4.183 h -1.008 v -0.513 l 1.008,-0.443 0.449,-1.501 h 0.616 v 1.629 h 2.04 v 0.828 h -2.04 v 4.138 a 2.145,2.145 0 0 0 0.031,0.377 q 0.037,0.207 0.118,0.37 a 1.033,1.033 0 0 0 0.152,0.229 0.989,0.989 0 0 0 0.608,0.323 1.424,1.424 0 0 0 0.22,0.017 3.498,3.498 0 0 0 0.512,-0.037 3.226,3.226 0 0 0 0.033,-0.005 5.762,5.762 0 0 0 0.154,-0.026 q 0.157,-0.03 0.263,-0.061 z m -23.136,-6.204 -0.147,0.988 q -0.437,-0.096 -0.77,-0.096 -0.854,0 -1.46,0.693 a 2.432,2.432 0 0 0 -0.587,1.365 3.233,3.233 0 0 0 -0.019,0.361 v 3.772 h -1.065 v -7.032 h 0.879 l 0.122,1.303 h 0.051 a 3.597,3.597 0 0 1 0.402,-0.575 2.747,2.747 0 0 1 0.541,-0.484 2.123,2.123 0 0 1 1.213,-0.372 q 0.468,0 0.84,0.077 z m 2.381,0.051 v 7.032 h -1.066 v -7.032 z m 5.216,6.872 h -1.277 a 2.448,2.448 0 0 0 -0.441,0.037 q -0.251,0.046 -0.449,0.149 a 1.247,1.247 0 0 0 -0.239,0.16 1.122,1.122 0 0 0 -0.369,0.637 1.704,1.704 0 0 0 -0.035,0.358 q 0,0.532 0.418,0.825 a 1.25,1.25 0 0 0 0.063,0.041 1.706,1.706 0 0 0 0.419,0.18 q 0.399,0.115 0.96,0.115 1.341,0 1.986,-0.401 a 1.554,1.554 0 0 0 0.36,-0.302 1.164,1.164 0 0 0 0.285,-0.785 q 0,-0.354 -0.136,-0.574 a 0.671,0.671 0 0 0 -0.217,-0.219 q -0.353,-0.221 -1.328,-0.221 z m -2.233,-4.62 a 2.079,2.079 0 0 0 0.043,0.436 q 0.058,0.271 0.194,0.473 a 1.139,1.139 0 0 0 0.18,0.208 q 0.417,0.378 1.161,0.378 a 2.32,2.32 0 0 0 0.608,-0.072 q 0.695,-0.189 0.882,-0.871 a 2.157,2.157 0 0 0 0.069,-0.571 2.29,2.29 0 0 0 -0.078,-0.627 q -0.2,-0.703 -0.915,-0.89 a 2.316,2.316 0 0 0 -0.585,-0.068 2.235,2.235 0 0 0 -0.455,0.044 q -0.428,0.089 -0.7,0.361 a 1.278,1.278 0 0 0 -0.309,0.52 q -0.065,0.202 -0.086,0.447 a 2.802,2.802 0 0 0 -0.009,0.232 z m -4.123,-4.352 a 1.18,1.18 0 0 0 -0.015,0.195 1.258,1.258 0 0 0 0.005,0.12 q 0.026,0.27 0.174,0.416 a 0.598,0.598 0 0 0 0.217,0.137 0.677,0.677 0 0 0 0.232,0.039 0.621,0.621 0 0 0 0.443,-0.176 0.52,0.52 0 0 0 0.102,-0.135 q 0.046,-0.087 0.067,-0.199 a 1.102,1.102 0 0 0 0.017,-0.202 1.218,1.218 0 0 0 -0.005,-0.116 q -0.01,-0.105 -0.039,-0.191 a 0.538,0.538 0 0 0 -0.142,-0.226 0.628,0.628 0 0 0 -0.443,-0.173 0.813,0.813 0 0 0 -0.053,0.002 0.616,0.616 0 0 0 -0.396,0.168 0.498,0.498 0 0 0 -0.11,0.156 q -0.037,0.082 -0.054,0.185 z"
       id="right_labelLayer"
       stroke="#777777"
       fill="#777777"
       style="font-size:12px;fill:#777777;fill-rule:evenodd;stroke:none;stroke-width:0.25mm;stroke-linecap:round;fill-opacity:1"
       vector-effect="non-scaling-stroke" />
    <path
       d="m 163.74981,83.474962 v 12.15 h -2.85 v 11.899998 h 2.85 v 11.9 h -2.85 v 11.9 h 2.85 v 11.9 0.25 h 10.25 v 2.85 h 11.9 v -2.85 h 11.9 v 2.85 h 11.9 v -2.85 h 11.9 v 2.85 h 11.9 v -2.85 h 10.25 v -12.15 h 2.85 v -11.9 h -2.85 v -11.9 h 2.85 V 95.624962 h -2.85 v -11.9 -0.25 h -10.25 v -2.85 h -11.9 v 2.85 h -11.9 v -2.85 h -11.9 v 2.85 h -11.9 v -2.85 h -11.9 v 2.85 z"
       id="bottom_outsideCutPath"
       stroke="#FF0000"
       stroke-width="0.1"
       style="font-size:12px;fill:none;fill-rule:evenodd;stroke:#ff0000;stroke-width:0.1;stroke-linecap:round"
       vector-effect="non-scaling-stroke" />
    <path
       d="m 225.36581,118.40196 h -1.066 v -4.574 q 0,-0.527 -0.141,-0.888 a 1.287,1.287 0 0 0 -0.218,-0.373 q -0.314,-0.368 -0.933,-0.414 a 2.472,2.472 0 0 0 -0.183,-0.006 2.741,2.741 0 0 0 -0.558,0.053 q -0.332,0.069 -0.581,0.228 a 1.41,1.41 0 0 0 -0.33,0.29 1.76,1.76 0 0 0 -0.299,0.54 q -0.175,0.491 -0.176,1.207 a 5.972,5.972 0 0 0 0,0.011 v 3.926 h -1.065 v -4.574 q 0,-0.527 -0.141,-0.888 a 1.287,1.287 0 0 0 -0.219,-0.373 1.117,1.117 0 0 0 -0.513,-0.334 q -0.263,-0.086 -0.609,-0.086 -0.699,0 -1.137,0.292 a 1.396,1.396 0 0 0 -0.329,0.308 1.786,1.786 0 0 0 -0.265,0.503 q -0.172,0.485 -0.197,1.214 a 7.415,7.415 0 0 0 -0.004,0.249 v 3.689 h -1.065 v -7.032 h 0.866 l 0.174,0.963 h 0.051 a 2.093,2.093 0 0 1 0.85,-0.802 2.529,2.529 0 0 1 0.999,-0.28 3.054,3.054 0 0 1 0.23,-0.009 3.487,3.487 0 0 1 0.785,0.082 q 0.482,0.111 0.819,0.376 a 1.818,1.818 0 0 1 0.552,0.735 h 0.051 a 2.224,2.224 0 0 1 0.838,-0.831 2.671,2.671 0 0 1 0.073,-0.041 2.696,2.696 0 0 1 0.989,-0.301 3.361,3.361 0 0 1 0.371,-0.02 q 0.805,0 1.336,0.278 a 1.755,1.755 0 0 1 0.451,0.335 1.834,1.834 0 0 1 0.394,0.644 q 0.106,0.284 0.156,0.637 a 4.885,4.885 0 0 1 0.044,0.679 z m -42.167,-0.904 h -0.077 l -0.224,0.904 h -0.764 v -9.983 h 1.065 v 2.425 q 0,0.815 -0.051,1.463 h 0.051 a 2.422,2.422 0 0 1 1.768,-1.026 3.638,3.638 0 0 1 0.44,-0.026 3.255,3.255 0 0 1 0.916,0.122 2.437,2.437 0 0 1 1.236,0.824 3.138,3.138 0 0 1 0.55,1.06 q 0.217,0.699 0.217,1.619 a 6.245,6.245 0 0 1 -0.083,1.051 q -0.096,0.56 -0.302,1.009 a 2.994,2.994 0 0 1 -0.388,0.631 q -0.773,0.96 -2.146,0.96 a 3.231,3.231 0 0 1 -0.812,-0.099 2.811,2.811 0 0 1 -0.443,-0.155 2.359,2.359 0 0 1 -0.953,-0.779 z m 18.158,0.025 v 0.815 a 1.048,1.048 0 0 1 -0.124,0.049 q -0.155,0.052 -0.386,0.089 a 4.616,4.616 0 0 1 -0.301,0.039 q -0.142,0.014 -0.27,0.015 a 2.731,2.731 0 0 1 -0.036,10e-4 2.782,2.782 0 0 1 -0.819,-0.111 q -0.901,-0.278 -1.137,-1.257 a 3.348,3.348 0 0 1 -0.084,-0.782 v -4.183 h -1.007 v -0.513 l 1.007,-0.443 0.449,-1.501 h 0.616 v 1.629 h 2.04 v 0.828 h -2.04 v 4.138 a 2.145,2.145 0 0 0 0.031,0.377 q 0.037,0.207 0.118,0.37 a 1.033,1.033 0 0 0 0.153,0.229 0.989,0.989 0 0 0 0.608,0.323 1.424,1.424 0 0 0 0.219,0.017 3.498,3.498 0 0 0 0.513,-0.037 3.226,3.226 0 0 0 0.033,-0.005 5.762,5.762 0 0 0 0.154,-0.026 q 0.157,-0.03 0.263,-0.061 z m 4.639,0 v 0.815 a 1.048,1.048 0 0 1 -0.125,0.049 q -0.154,0.052 -0.385,0.089 a 4.616,4.616 0 0 1 -0.301,0.039 q -0.142,0.014 -0.27,0.015 a 2.731,2.731 0 0 1 -0.036,10e-4 2.782,2.782 0 0 1 -0.82,-0.111 q -0.901,-0.278 -1.137,-1.257 a 3.348,3.348 0 0 1 -0.083,-0.782 v -4.183 h -1.007 v -0.513 l 1.007,-0.443 0.449,-1.501 h 0.616 v 1.629 h 2.04 v 0.828 h -2.04 v 4.138 a 2.145,2.145 0 0 0 0.031,0.377 q 0.037,0.207 0.118,0.37 a 1.033,1.033 0 0 0 0.153,0.229 0.989,0.989 0 0 0 0.608,0.323 1.424,1.424 0 0 0 0.219,0.017 3.498,3.498 0 0 0 0.513,-0.037 3.226,3.226 0 0 0 0.033,-0.005 5.762,5.762 0 0 0 0.153,-0.026 q 0.158,-0.03 0.264,-0.061 z m -9.74,-2.643 q 0,1.719 -0.866,2.685 a 2.839,2.839 0 0 1 -1.671,0.905 4.136,4.136 0 0 1 -0.722,0.061 3.42,3.42 0 0 1 -0.994,-0.14 2.966,2.966 0 0 1 -0.681,-0.303 2.883,2.883 0 0 1 -1.052,-1.119 3.501,3.501 0 0 1 -0.077,-0.151 3.94,3.94 0 0 1 -0.331,-1.075 5.328,5.328 0 0 1 -0.067,-0.863 q 0,-1.309 0.498,-2.178 a 2.942,2.942 0 0 1 0.362,-0.501 2.817,2.817 0 0 1 1.644,-0.895 4.137,4.137 0 0 1 0.743,-0.064 3.579,3.579 0 0 1 1.05,0.147 2.788,2.788 0 0 1 1.295,0.835 q 0.825,0.931 0.867,2.487 a 6.25,6.25 0 0 1 0.002,0.169 z m 17.214,0 q 0,1.719 -0.866,2.685 a 2.839,2.839 0 0 1 -1.671,0.905 4.136,4.136 0 0 1 -0.722,0.061 3.42,3.42 0 0 1 -0.994,-0.14 2.966,2.966 0 0 1 -0.681,-0.303 2.883,2.883 0 0 1 -1.051,-1.119 3.501,3.501 0 0 1 -0.078,-0.151 3.94,3.94 0 0 1 -0.331,-1.075 5.328,5.328 0 0 1 -0.067,-0.863 q 0,-1.309 0.499,-2.178 a 2.942,2.942 0 0 1 0.361,-0.501 2.817,2.817 0 0 1 1.644,-0.895 4.137,4.137 0 0 1 0.743,-0.064 3.579,3.579 0 0 1 1.05,0.147 2.788,2.788 0 0 1 1.295,0.835 q 0.825,0.931 0.867,2.487 a 6.25,6.25 0 0 1 0.002,0.169 z m -22.571,0 a 5.393,5.393 0 0 0 0.051,0.77 q 0.057,0.392 0.176,0.708 a 2.234,2.234 0 0 0 0.312,0.575 q 0.539,0.706 1.584,0.706 a 2.474,2.474 0 0 0 0.653,-0.081 1.722,1.722 0 0 0 0.935,-0.622 q 0.404,-0.522 0.507,-1.405 a 5.61,5.61 0 0 0 0.036,-0.651 5.314,5.314 0 0 0 -0.051,-0.757 q -0.115,-0.796 -0.492,-1.28 a 1.752,1.752 0 0 0 -1.089,-0.65 2.686,2.686 0 0 0 -0.511,-0.046 2.535,2.535 0 0 0 -0.631,0.074 1.696,1.696 0 0 0 -0.948,0.612 2.202,2.202 0 0 0 -0.342,0.662 q -0.19,0.572 -0.19,1.385 z m 17.214,0 a 5.393,5.393 0 0 0 0.051,0.77 q 0.057,0.392 0.176,0.708 a 2.234,2.234 0 0 0 0.312,0.575 q 0.539,0.706 1.585,0.706 a 2.474,2.474 0 0 0 0.652,-0.081 1.722,1.722 0 0 0 0.936,-0.622 q 0.403,-0.522 0.506,-1.405 a 5.61,5.61 0 0 0 0.036,-0.651 5.314,5.314 0 0 0 -0.051,-0.757 q -0.115,-0.796 -0.491,-1.28 a 1.752,1.752 0 0 0 -1.09,-0.65 2.686,2.686 0 0 0 -0.511,-0.046 2.535,2.535 0 0 0 -0.631,0.074 1.696,1.696 0 0 0 -0.948,0.612 2.202,2.202 0 0 0 -0.342,0.662 q -0.19,0.572 -0.19,1.385 z m -24.021,-2.469 a 1.416,1.416 0 0 0 -0.411,0.361 q -0.423,0.55 -0.474,1.761 a 8.206,8.206 0 0 0 -0.008,0.347 7.042,7.042 0 0 0 0.035,0.728 q 0.097,0.924 0.46,1.392 0.442,0.573 1.365,0.632 a 3.425,3.425 0 0 0 0.219,0.007 2.123,2.123 0 0 0 0.603,-0.081 1.532,1.532 0 0 0 0.86,-0.635 2.445,2.445 0 0 0 0.303,-0.654 q 0.095,-0.311 0.139,-0.687 a 6.103,6.103 0 0 0 0.039,-0.715 q 0,-1.373 -0.481,-2.047 a 1.553,1.553 0 0 0 -0.989,-0.625 2.463,2.463 0 0 0 -0.499,-0.048 q -0.709,0 -1.161,0.264 z"
       id="bottom_labelLayer"
       stroke="#777777"
       fill="#777777"
       style="font-size:12px;fill:#777777;fill-rule:evenodd;stroke:none;stroke-width:0.25mm;stroke-linecap:round"
       vector-effect="non-scaling-stroke" />
  </g>
</svg>
