<svg width="25.958in" height="8.361in" viewBox="0 0 25.958 8.361" xmlns="http://www.w3.org/2000/svg" version="1.1" preserveAspectRatio="xMidYMid meet"><g id="svgGroup" stroke-linecap="round" fill-rule="evenodd" font-size="9pt" stroke="#000" stroke-width="0.25mm" fill="none" style="stroke:#000;stroke-width:0.25mm;fill:none"><path d="M 0 4.243 L 0 5.24 L 0.118 5.24 L 0.118 5.948 L 0 5.948 L 0 6.656 L 0.118 6.656 L 0.118 7.364 L 0 7.364 L 0 8.072 L 0 8.361 L 0.724 8.361 L 0.724 8.243 L 1.432 8.243 L 1.432 8.361 L 2.14 8.361 L 2.14 8.243 L 2.848 8.243 L 2.848 8.361 L 3.556 8.361 L 3.556 8.243 L 4.264 8.243 L 4.264 8.361 L 4.972 8.361 L 4.972 8.243 L 5.68 8.243 L 5.68 8.361 L 6.388 8.361 L 6.388 8.243 L 7.096 8.243 L 7.096 8.361 L 7.804 8.361 L 7.804 8.243 L 8.512 8.243 L 8.512 8.361 L 9.236 8.361 L 9.236 7.364 L 9.118 7.364 L 9.118 6.656 L 9.236 6.656 L 9.236 5.948 L 9.118 5.948 L 9.118 5.24 L 9.236 5.24 L 9.236 4.532 L 9.236 4.243 L 0 4.243 Z" id="front_outsideCutPath" stroke="#FF0000" stroke-width="0.1" style="stroke:#FF0000;stroke-width:0.1" vector-effect="non-scaling-stroke"/><path d="M 5.218 6.613 L 5.151 6.613 L 5.151 6.328 A 0.189 0.189 0 0 0 5.149 6.298 Q 5.147 6.283 5.141 6.27 A 0.079 0.079 0 0 0 5.127 6.248 Q 5.107 6.226 5.069 6.222 A 0.177 0.177 0 0 0 5.05 6.221 Q 4.981 6.221 4.949 6.258 A 0.109 0.109 0 0 0 4.93 6.292 Q 4.917 6.327 4.917 6.382 L 4.917 6.613 L 4.85 6.613 L 4.85 6.172 L 4.904 6.172 L 4.915 6.233 L 4.918 6.233 A 0.135 0.135 0 0 1 4.971 6.184 A 0.163 0.163 0 0 1 4.976 6.182 Q 5.013 6.164 5.058 6.164 A 0.264 0.264 0 0 1 5.103 6.168 Q 5.15 6.176 5.178 6.203 A 0.116 0.116 0 0 1 5.206 6.247 Q 5.213 6.265 5.216 6.288 A 0.291 0.291 0 0 1 5.218 6.326 L 5.218 6.613 Z M 3.936 6.172 L 3.936 6.224 L 3.824 6.224 L 3.824 6.613 L 3.757 6.613 L 3.757 6.224 L 3.678 6.224 L 3.678 6.194 L 3.757 6.17 L 3.757 6.145 A 0.271 0.271 0 0 1 3.763 6.084 Q 3.783 6 3.863 5.986 A 0.203 0.203 0 0 1 3.899 5.983 A 0.215 0.215 0 0 1 3.929 5.985 Q 3.944 5.987 3.96 5.991 A 0.432 0.432 0 0 1 3.981 5.997 L 3.964 6.05 A 0.324 0.324 0 0 0 3.938 6.043 Q 3.926 6.04 3.914 6.039 A 0.144 0.144 0 0 0 3.898 6.038 A 0.09 0.09 0 0 0 3.876 6.04 A 0.058 0.058 0 0 0 3.842 6.063 A 0.077 0.077 0 0 0 3.831 6.084 Q 3.824 6.107 3.824 6.144 L 3.824 6.172 L 3.936 6.172 Z M 5.558 6.558 L 5.558 6.609 A 0.066 0.066 0 0 1 5.55 6.612 Q 5.542 6.615 5.53 6.617 A 0.25 0.25 0 0 1 5.526 6.618 A 0.289 0.289 0 0 1 5.507 6.62 Q 5.498 6.621 5.49 6.621 A 0.17 0.17 0 0 1 5.488 6.621 Q 5.36 6.621 5.36 6.486 L 5.36 6.224 L 5.297 6.224 L 5.297 6.192 L 5.36 6.164 L 5.388 6.07 L 5.427 6.07 L 5.427 6.172 L 5.555 6.172 L 5.555 6.224 L 5.427 6.224 L 5.427 6.484 Q 5.427 6.512 5.436 6.53 A 0.065 0.065 0 0 0 5.446 6.545 A 0.062 0.062 0 0 0 5.484 6.565 A 0.089 0.089 0 0 0 5.498 6.566 A 0.219 0.219 0 0 0 5.53 6.564 A 0.206 0.206 0 0 0 5.532 6.563 Q 5.542 6.562 5.55 6.56 A 0.139 0.139 0 0 0 5.557 6.558 Z M 4.27 6.169 L 4.261 6.231 A 0.294 0.294 0 0 0 4.24 6.227 Q 4.225 6.225 4.212 6.225 A 0.116 0.116 0 0 0 4.127 6.262 A 0.158 0.158 0 0 0 4.121 6.268 A 0.152 0.152 0 0 0 4.084 6.354 A 0.203 0.203 0 0 0 4.083 6.377 L 4.083 6.613 L 4.016 6.613 L 4.016 6.172 L 4.071 6.172 L 4.079 6.254 L 4.082 6.254 A 0.225 0.225 0 0 1 4.107 6.218 A 0.172 0.172 0 0 1 4.141 6.188 Q 4.176 6.164 4.217 6.164 A 0.306 0.306 0 0 1 4.245 6.165 A 0.224 0.224 0 0 1 4.27 6.169 Z M 4.727 6.459 A 0.345 0.345 0 0 0 4.733 6.392 A 0.391 0.391 0 0 0 4.733 6.382 Q 4.73 6.284 4.678 6.226 A 0.175 0.175 0 0 0 4.597 6.173 A 0.224 0.224 0 0 0 4.531 6.164 A 0.259 0.259 0 0 0 4.485 6.168 A 0.177 0.177 0 0 0 4.382 6.224 A 0.184 0.184 0 0 0 4.359 6.256 Q 4.342 6.286 4.334 6.325 A 0.347 0.347 0 0 0 4.328 6.392 A 0.334 0.334 0 0 0 4.332 6.446 A 0.247 0.247 0 0 0 4.353 6.514 A 0.219 0.219 0 0 0 4.358 6.523 A 0.181 0.181 0 0 0 4.424 6.593 A 0.186 0.186 0 0 0 4.466 6.612 A 0.214 0.214 0 0 0 4.529 6.621 A 0.259 0.259 0 0 0 4.574 6.617 A 0.178 0.178 0 0 0 4.679 6.561 A 0.186 0.186 0 0 0 4.701 6.53 Q 4.719 6.499 4.727 6.459 Z M 4.397 6.392 A 0.338 0.338 0 0 0 4.4 6.441 Q 4.404 6.465 4.411 6.485 A 0.14 0.14 0 0 0 4.431 6.521 A 0.109 0.109 0 0 0 4.502 6.563 A 0.166 0.166 0 0 0 4.53 6.565 A 0.155 0.155 0 0 0 4.571 6.56 A 0.108 0.108 0 0 0 4.63 6.521 A 0.143 0.143 0 0 0 4.652 6.478 Q 4.659 6.458 4.661 6.433 A 0.352 0.352 0 0 0 4.664 6.392 Q 4.664 6.338 4.65 6.301 A 0.137 0.137 0 0 0 4.63 6.265 A 0.11 0.11 0 0 0 4.561 6.224 A 0.168 0.168 0 0 0 4.529 6.221 A 0.159 0.159 0 0 0 4.49 6.226 A 0.106 0.106 0 0 0 4.43 6.264 Q 4.406 6.295 4.4 6.348 A 0.353 0.353 0 0 0 4.397 6.392 Z" id="front_labelLayer" stroke="#777777" fill="#777777" style="stroke:#777777;fill:#777777" vector-effect="non-scaling-stroke"/><path d="M 9.479 4.243 L 9.479 5.24 L 9.361 5.24 L 9.361 5.948 L 9.479 5.948 L 9.479 6.656 L 9.361 6.656 L 9.361 7.364 L 9.479 7.364 L 9.479 8.072 L 9.479 8.361 L 10.501 8.361 L 10.501 8.243 L 11.209 8.243 L 11.209 8.361 L 11.917 8.361 L 11.917 8.243 L 12.625 8.243 L 12.625 8.361 L 13.333 8.361 L 13.333 8.243 L 14.041 8.243 L 14.041 8.361 L 14.749 8.361 L 14.749 8.243 L 15.457 8.243 L 15.457 8.361 L 16.165 8.361 L 16.479 8.361 L 16.479 7.364 L 16.597 7.364 L 16.597 6.656 L 16.479 6.656 L 16.479 5.948 L 16.597 5.948 L 16.597 5.24 L 16.479 5.24 L 16.479 4.532 L 16.479 4.243 L 9.479 4.243 Z" id="left_outsideCutPath" stroke="#FF0000" stroke-width="0.1" style="stroke:#FF0000;stroke-width:0.1" vector-effect="non-scaling-stroke"/><path d="M 13.272 6.172 L 13.272 6.224 L 13.16 6.224 L 13.16 6.613 L 13.093 6.613 L 13.093 6.224 L 13.014 6.224 L 13.014 6.194 L 13.093 6.17 L 13.093 6.145 A 0.271 0.271 0 0 1 13.099 6.084 Q 13.119 6 13.199 5.986 A 0.203 0.203 0 0 1 13.235 5.983 A 0.215 0.215 0 0 1 13.265 5.985 Q 13.28 5.987 13.297 5.991 A 0.432 0.432 0 0 1 13.317 5.997 L 13.3 6.05 A 0.324 0.324 0 0 0 13.275 6.043 Q 13.262 6.04 13.251 6.039 A 0.144 0.144 0 0 0 13.234 6.038 A 0.09 0.09 0 0 0 13.212 6.04 A 0.058 0.058 0 0 0 13.178 6.063 A 0.077 0.077 0 0 0 13.168 6.084 Q 13.16 6.107 13.16 6.144 L 13.16 6.172 L 13.272 6.172 Z M 12.959 6.363 L 12.959 6.405 L 12.656 6.405 Q 12.657 6.458 12.675 6.493 A 0.125 0.125 0 0 0 12.695 6.523 A 0.121 0.121 0 0 0 12.759 6.558 A 0.184 0.184 0 0 0 12.8 6.563 A 0.353 0.353 0 0 0 12.932 6.537 A 0.405 0.405 0 0 0 12.941 6.533 L 12.941 6.593 A 0.401 0.401 0 0 1 12.904 6.606 A 0.307 0.307 0 0 1 12.874 6.614 Q 12.849 6.62 12.817 6.621 A 0.543 0.543 0 0 1 12.797 6.621 A 0.259 0.259 0 0 1 12.733 6.613 A 0.184 0.184 0 0 1 12.643 6.562 Q 12.587 6.502 12.587 6.396 Q 12.587 6.29 12.639 6.227 Q 12.692 6.164 12.78 6.164 A 0.203 0.203 0 0 1 12.837 6.172 A 0.155 0.155 0 0 1 12.911 6.219 A 0.187 0.187 0 0 1 12.954 6.304 A 0.272 0.272 0 0 1 12.959 6.363 Z M 13.555 6.558 L 13.555 6.609 A 0.066 0.066 0 0 1 13.547 6.612 Q 13.539 6.615 13.527 6.617 A 0.25 0.25 0 0 1 13.523 6.618 A 0.289 0.289 0 0 1 13.504 6.62 Q 13.495 6.621 13.487 6.621 A 0.17 0.17 0 0 1 13.485 6.621 Q 13.357 6.621 13.357 6.486 L 13.357 6.224 L 13.294 6.224 L 13.294 6.192 L 13.357 6.164 L 13.385 6.07 L 13.424 6.07 L 13.424 6.172 L 13.552 6.172 L 13.552 6.224 L 13.424 6.224 L 13.424 6.484 Q 13.424 6.512 13.433 6.53 A 0.065 0.065 0 0 0 13.443 6.545 A 0.062 0.062 0 0 0 13.481 6.565 A 0.089 0.089 0 0 0 13.495 6.566 A 0.219 0.219 0 0 0 13.527 6.564 A 0.206 0.206 0 0 0 13.529 6.563 Q 13.539 6.562 13.547 6.56 A 0.139 0.139 0 0 0 13.554 6.558 Z M 12.47 5.987 L 12.47 6.613 L 12.403 6.613 L 12.403 5.987 L 12.47 5.987 Z M 12.657 6.35 L 12.888 6.35 Q 12.888 6.308 12.875 6.279 A 0.103 0.103 0 0 0 12.86 6.254 A 0.091 0.091 0 0 0 12.805 6.222 A 0.137 0.137 0 0 0 12.779 6.22 Q 12.726 6.22 12.695 6.255 A 0.132 0.132 0 0 0 12.668 6.299 Q 12.662 6.317 12.659 6.339 A 0.252 0.252 0 0 0 12.657 6.35 Z" id="left_labelLayer" stroke="#777777" fill="#777777" style="stroke:#777777;fill:#777777" vector-effect="non-scaling-stroke"/><path d="M 0 0 L 0 0.997 L 0.118 0.997 L 0.118 1.705 L 0 1.705 L 0 2.413 L 0.118 2.413 L 0.118 3.121 L 0 3.121 L 0 3.829 L 0 4.118 L 0.724 4.118 L 0.724 4 L 1.432 4 L 1.432 4.118 L 2.14 4.118 L 2.14 4 L 2.848 4 L 2.848 4.118 L 3.556 4.118 L 3.556 4 L 4.264 4 L 4.264 4.118 L 4.972 4.118 L 4.972 4 L 5.68 4 L 5.68 4.118 L 6.388 4.118 L 6.388 4 L 7.096 4 L 7.096 4.118 L 7.804 4.118 L 7.804 4 L 8.512 4 L 8.512 4.118 L 9.236 4.118 L 9.236 3.121 L 9.118 3.121 L 9.118 2.413 L 9.236 2.413 L 9.236 1.705 L 9.118 1.705 L 9.118 0.997 L 9.236 0.997 L 9.236 0.289 L 9.236 0 L 0 0 Z" id="back_outsideCutPath" stroke="#FF0000" stroke-width="0.1" style="stroke:#FF0000;stroke-width:0.1" vector-effect="non-scaling-stroke"/><path d="M 5.182 2.142 L 5.185 2.142 Q 5.202 2.118 5.238 2.078 L 5.38 1.927 L 5.459 1.927 L 5.281 2.115 L 5.472 2.368 L 5.391 2.368 L 5.235 2.16 L 5.185 2.203 L 5.185 2.368 L 5.119 2.368 L 5.119 1.742 L 5.185 1.742 L 5.185 2.074 Q 5.185 2.096 5.182 2.142 Z M 3.831 2.311 L 3.826 2.311 L 3.812 2.368 L 3.764 2.368 L 3.764 1.742 L 3.831 1.742 L 3.831 1.894 A 1.392 1.392 0 0 1 3.83 1.941 Q 3.829 1.965 3.828 1.986 L 3.831 1.986 Q 3.878 1.92 3.969 1.92 A 0.204 0.204 0 0 1 4.027 1.928 A 0.153 0.153 0 0 1 4.104 1.979 A 0.197 0.197 0 0 1 4.139 2.046 Q 4.147 2.073 4.15 2.106 A 0.429 0.429 0 0 1 4.152 2.147 Q 4.152 2.224 4.128 2.276 A 0.188 0.188 0 0 1 4.104 2.316 A 0.158 0.158 0 0 1 3.992 2.375 A 0.226 0.226 0 0 1 3.969 2.376 Q 3.926 2.376 3.891 2.36 Q 3.855 2.344 3.831 2.311 Z M 4.589 2.368 L 4.54 2.368 L 4.527 2.305 L 4.523 2.305 A 0.277 0.277 0 0 1 4.501 2.33 Q 4.489 2.342 4.477 2.35 A 0.123 0.123 0 0 1 4.458 2.361 Q 4.425 2.376 4.376 2.376 A 0.205 0.205 0 0 1 4.334 2.372 Q 4.298 2.364 4.273 2.342 Q 4.236 2.308 4.236 2.246 A 0.116 0.116 0 0 1 4.302 2.137 Q 4.354 2.109 4.449 2.106 L 4.524 2.104 L 4.524 2.076 A 0.192 0.192 0 0 0 4.522 2.049 Q 4.52 2.034 4.516 2.023 A 0.074 0.074 0 0 0 4.502 2 A 0.068 0.068 0 0 0 4.474 1.982 Q 4.463 1.978 4.449 1.976 A 0.165 0.165 0 0 0 4.431 1.975 A 0.217 0.217 0 0 0 4.381 1.981 Q 4.358 1.987 4.333 1.997 A 0.447 0.447 0 0 0 4.306 2.009 L 4.285 1.958 A 0.308 0.308 0 0 1 4.345 1.933 A 0.351 0.351 0 0 1 4.357 1.93 A 0.309 0.309 0 0 1 4.435 1.92 A 0.282 0.282 0 0 1 4.478 1.923 Q 4.5 1.926 4.517 1.934 A 0.114 0.114 0 0 1 4.551 1.955 A 0.106 0.106 0 0 1 4.579 1.997 Q 4.585 2.014 4.588 2.036 A 0.263 0.263 0 0 1 4.589 2.067 L 4.589 2.368 Z M 5.021 1.942 L 5 1.999 A 0.297 0.297 0 0 0 4.968 1.988 A 0.355 0.355 0 0 0 4.952 1.984 Q 4.926 1.978 4.906 1.978 Q 4.772 1.978 4.772 2.149 A 0.323 0.323 0 0 0 4.775 2.197 Q 4.778 2.22 4.786 2.24 A 0.138 0.138 0 0 0 4.804 2.274 A 0.106 0.106 0 0 0 4.873 2.315 A 0.161 0.161 0 0 0 4.902 2.318 Q 4.957 2.318 5.015 2.294 L 5.015 2.353 A 0.19 0.19 0 0 1 4.968 2.369 Q 4.947 2.374 4.922 2.375 A 0.366 0.366 0 0 1 4.903 2.376 A 0.249 0.249 0 0 1 4.842 2.369 A 0.169 0.169 0 0 1 4.755 2.317 A 0.193 0.193 0 0 1 4.715 2.243 Q 4.706 2.214 4.703 2.179 A 0.404 0.404 0 0 1 4.702 2.15 A 0.368 0.368 0 0 1 4.708 2.083 Q 4.715 2.046 4.73 2.016 A 0.184 0.184 0 0 1 4.756 1.979 A 0.173 0.173 0 0 1 4.85 1.925 A 0.262 0.262 0 0 1 4.908 1.919 Q 4.939 1.919 4.971 1.926 A 0.333 0.333 0 0 1 4.99 1.93 Q 5.008 1.936 5.021 1.942 Z M 3.887 1.992 A 0.089 0.089 0 0 0 3.861 2.015 A 0.114 0.114 0 0 0 3.845 2.046 Q 3.833 2.078 3.831 2.125 A 0.514 0.514 0 0 0 3.831 2.147 A 0.441 0.441 0 0 0 3.833 2.193 Q 3.839 2.251 3.862 2.28 A 0.097 0.097 0 0 0 3.911 2.313 Q 3.933 2.32 3.961 2.32 A 0.133 0.133 0 0 0 3.999 2.315 A 0.096 0.096 0 0 0 4.053 2.275 Q 4.075 2.243 4.081 2.191 A 0.383 0.383 0 0 0 4.083 2.146 Q 4.083 2.065 4.056 2.022 A 0.111 0.111 0 0 0 4.053 2.018 A 0.097 0.097 0 0 0 3.991 1.979 A 0.154 0.154 0 0 0 3.96 1.976 Q 3.915 1.976 3.887 1.992 Z M 4.523 2.191 L 4.523 2.151 L 4.456 2.154 A 0.49 0.49 0 0 0 4.417 2.157 Q 4.367 2.163 4.341 2.179 Q 4.306 2.201 4.306 2.247 A 0.095 0.095 0 0 0 4.308 2.269 Q 4.312 2.286 4.323 2.297 A 0.059 0.059 0 0 0 4.328 2.302 A 0.073 0.073 0 0 0 4.355 2.316 Q 4.366 2.32 4.379 2.32 A 0.15 0.15 0 0 0 4.389 2.321 Q 4.452 2.321 4.487 2.287 A 0.112 0.112 0 0 0 4.518 2.231 A 0.17 0.17 0 0 0 4.523 2.192 Z" id="back_labelLayer" stroke="#777777" fill="#777777" style="stroke:#777777;fill:#777777" vector-effect="non-scaling-stroke"/><path d="M 9.479 0 L 9.479 0.997 L 9.361 0.997 L 9.361 1.705 L 9.479 1.705 L 9.479 2.413 L 9.361 2.413 L 9.361 3.121 L 9.479 3.121 L 9.479 3.829 L 9.479 4.118 L 10.501 4.118 L 10.501 4 L 11.209 4 L 11.209 4.118 L 11.917 4.118 L 11.917 4 L 12.625 4 L 12.625 4.118 L 13.333 4.118 L 13.333 4 L 14.041 4 L 14.041 4.118 L 14.749 4.118 L 14.749 4 L 15.457 4 L 15.457 4.118 L 16.165 4.118 L 16.479 4.118 L 16.479 3.121 L 16.597 3.121 L 16.597 2.413 L 16.479 2.413 L 16.479 1.705 L 16.597 1.705 L 16.597 0.997 L 16.479 0.997 L 16.479 0.289 L 16.479 0 L 9.479 0 Z" id="right_outsideCutPath" stroke="#FF0000" stroke-width="0.1" style="stroke:#FF0000;stroke-width:0.1" vector-effect="non-scaling-stroke"/><path d="M 13.491 2.273 L 13.424 2.273 L 13.424 1.988 A 0.189 0.189 0 0 0 13.422 1.958 Q 13.42 1.943 13.414 1.93 A 0.079 0.079 0 0 0 13.4 1.907 Q 13.38 1.886 13.342 1.882 A 0.177 0.177 0 0 0 13.323 1.881 Q 13.253 1.881 13.221 1.919 A 0.111 0.111 0 0 0 13.203 1.952 Q 13.191 1.983 13.19 2.028 A 0.431 0.431 0 0 0 13.19 2.043 L 13.19 2.273 L 13.123 2.273 L 13.123 1.647 L 13.19 1.647 L 13.19 1.837 A 0.6 0.6 0 0 1 13.189 1.86 Q 13.189 1.87 13.188 1.88 A 0.261 0.261 0 0 1 13.186 1.893 L 13.19 1.893 A 0.133 0.133 0 0 1 13.237 1.848 A 0.163 0.163 0 0 1 13.246 1.843 A 0.171 0.171 0 0 1 13.303 1.827 A 0.217 0.217 0 0 1 13.329 1.825 A 0.271 0.271 0 0 1 13.375 1.829 Q 13.423 1.837 13.451 1.863 A 0.116 0.116 0 0 1 13.479 1.908 Q 13.491 1.94 13.491 1.985 L 13.491 2.273 Z M 12.88 1.832 L 13.032 1.832 L 13.032 1.874 L 12.951 1.884 A 0.109 0.109 0 0 1 12.96 1.898 Q 12.964 1.905 12.968 1.914 A 0.206 0.206 0 0 1 12.971 1.921 A 0.128 0.128 0 0 1 12.978 1.952 A 0.165 0.165 0 0 1 12.98 1.972 A 0.153 0.153 0 0 1 12.973 2.02 A 0.124 0.124 0 0 1 12.935 2.075 A 0.148 0.148 0 0 1 12.877 2.106 Q 12.855 2.112 12.829 2.114 A 0.29 0.29 0 0 1 12.814 2.114 A 0.215 0.215 0 0 1 12.789 2.113 A 0.181 0.181 0 0 1 12.777 2.111 Q 12.753 2.124 12.742 2.14 A 0.05 0.05 0 0 0 12.734 2.168 Q 12.734 2.185 12.748 2.194 A 0.037 0.037 0 0 0 12.749 2.194 A 0.047 0.047 0 0 0 12.76 2.199 Q 12.77 2.202 12.787 2.203 A 0.254 0.254 0 0 0 12.8 2.203 L 12.878 2.203 A 0.273 0.273 0 0 1 12.92 2.206 Q 12.941 2.209 12.959 2.216 A 0.121 0.121 0 0 1 12.988 2.233 A 0.098 0.098 0 0 1 13.025 2.295 A 0.147 0.147 0 0 1 13.027 2.321 Q 13.027 2.393 12.97 2.431 A 0.159 0.159 0 0 1 12.968 2.432 Q 12.909 2.471 12.797 2.471 Q 12.71 2.471 12.663 2.439 A 0.106 0.106 0 0 1 12.629 2.401 Q 12.618 2.381 12.617 2.355 A 0.141 0.141 0 0 1 12.616 2.348 A 0.102 0.102 0 0 1 12.642 2.278 A 0.117 0.117 0 0 1 12.682 2.249 A 0.165 0.165 0 0 1 12.715 2.238 A 0.069 0.069 0 0 1 12.688 2.217 A 0.082 0.082 0 0 1 12.686 2.215 Q 12.675 2.199 12.675 2.177 A 0.076 0.076 0 0 1 12.679 2.153 A 0.068 0.068 0 0 1 12.688 2.135 Q 12.697 2.121 12.716 2.108 A 0.21 0.21 0 0 1 12.728 2.1 A 0.117 0.117 0 0 1 12.677 2.059 A 0.145 0.145 0 0 1 12.673 2.052 A 0.138 0.138 0 0 1 12.651 1.986 A 0.168 0.168 0 0 1 12.651 1.975 A 0.193 0.193 0 0 1 12.656 1.929 A 0.127 0.127 0 0 1 12.694 1.863 Q 12.732 1.829 12.797 1.825 A 0.295 0.295 0 0 1 12.818 1.824 A 0.256 0.256 0 0 1 12.851 1.826 A 0.195 0.195 0 0 1 12.88 1.832 Z M 13.831 2.218 L 13.831 2.269 A 0.066 0.066 0 0 1 13.823 2.272 Q 13.815 2.275 13.803 2.277 A 0.25 0.25 0 0 1 13.799 2.278 A 0.289 0.289 0 0 1 13.78 2.28 Q 13.771 2.281 13.763 2.281 A 0.17 0.17 0 0 1 13.761 2.281 Q 13.633 2.281 13.633 2.146 L 13.633 1.884 L 13.57 1.884 L 13.57 1.852 L 13.633 1.824 L 13.661 1.73 L 13.7 1.73 L 13.7 1.832 L 13.828 1.832 L 13.828 1.884 L 13.7 1.884 L 13.7 2.143 Q 13.7 2.171 13.709 2.19 A 0.065 0.065 0 0 0 13.719 2.205 A 0.062 0.062 0 0 0 13.757 2.225 A 0.089 0.089 0 0 0 13.771 2.226 A 0.219 0.219 0 0 0 13.803 2.224 A 0.206 0.206 0 0 0 13.805 2.223 Q 13.815 2.222 13.823 2.22 A 0.139 0.139 0 0 0 13.83 2.218 Z M 12.381 1.829 L 12.372 1.891 A 0.294 0.294 0 0 0 12.35 1.887 Q 12.336 1.885 12.323 1.885 A 0.116 0.116 0 0 0 12.238 1.922 A 0.158 0.158 0 0 0 12.232 1.928 A 0.152 0.152 0 0 0 12.195 2.014 A 0.203 0.203 0 0 0 12.194 2.036 L 12.194 2.273 L 12.127 2.273 L 12.127 1.832 L 12.182 1.832 L 12.19 1.914 L 12.193 1.914 A 0.225 0.225 0 0 1 12.218 1.878 A 0.172 0.172 0 0 1 12.252 1.847 Q 12.287 1.824 12.328 1.824 A 0.306 0.306 0 0 1 12.356 1.825 A 0.224 0.224 0 0 1 12.381 1.829 Z M 12.53 1.832 L 12.53 2.273 L 12.463 2.273 L 12.463 1.832 L 12.53 1.832 Z M 12.857 2.263 L 12.777 2.263 A 0.153 0.153 0 0 0 12.749 2.265 Q 12.734 2.268 12.721 2.275 A 0.078 0.078 0 0 0 12.706 2.285 A 0.07 0.07 0 0 0 12.683 2.324 A 0.107 0.107 0 0 0 12.681 2.347 Q 12.681 2.38 12.707 2.399 A 0.078 0.078 0 0 0 12.711 2.401 Q 12.732 2.414 12.765 2.418 A 0.274 0.274 0 0 0 12.797 2.42 Q 12.873 2.42 12.913 2.4 A 0.111 0.111 0 0 0 12.922 2.395 A 0.097 0.097 0 0 0 12.944 2.376 A 0.073 0.073 0 0 0 12.962 2.326 A 0.09 0.09 0 0 0 12.961 2.308 Q 12.959 2.298 12.954 2.29 A 0.042 0.042 0 0 0 12.94 2.277 Q 12.918 2.263 12.857 2.263 Z M 12.717 1.973 A 0.13 0.13 0 0 0 12.72 2.001 Q 12.725 2.027 12.743 2.043 Q 12.767 2.065 12.807 2.067 A 0.172 0.172 0 0 0 12.816 2.067 A 0.145 0.145 0 0 0 12.854 2.062 Q 12.914 2.046 12.914 1.972 A 0.144 0.144 0 0 0 12.909 1.933 Q 12.892 1.873 12.815 1.873 A 0.14 0.14 0 0 0 12.786 1.876 Q 12.759 1.881 12.742 1.898 A 0.08 0.08 0 0 0 12.723 1.931 Q 12.719 1.943 12.718 1.959 A 0.176 0.176 0 0 0 12.717 1.973 Z M 12.459 1.701 A 0.074 0.074 0 0 0 12.458 1.713 Q 12.458 1.724 12.46 1.733 A 0.034 0.034 0 0 0 12.469 1.746 A 0.037 0.037 0 0 0 12.482 1.755 A 0.042 0.042 0 0 0 12.497 1.757 A 0.039 0.039 0 0 0 12.525 1.746 A 0.033 0.033 0 0 0 12.531 1.738 Q 12.534 1.732 12.535 1.725 A 0.069 0.069 0 0 0 12.536 1.713 Q 12.536 1.69 12.525 1.679 A 0.039 0.039 0 0 0 12.497 1.669 A 0.051 0.051 0 0 0 12.494 1.669 A 0.039 0.039 0 0 0 12.469 1.679 Q 12.461 1.687 12.459 1.701 Z" id="right_labelLayer" stroke="#777777" fill="#777777" style="stroke:#777777;fill:#777777" vector-effect="non-scaling-stroke"/><path d="M 16.84 1.243 L 16.84 2.265 L 16.722 2.265 L 16.722 2.973 L 16.84 2.973 L 16.84 3.681 L 16.722 3.681 L 16.722 4.389 L 16.84 4.389 L 16.84 5.097 L 16.722 5.097 L 16.722 5.805 L 16.84 5.805 L 16.84 6.513 L 16.722 6.513 L 16.722 7.221 L 16.84 7.221 L 16.84 7.929 L 16.84 8.243 L 17.446 8.243 L 17.446 8.361 L 18.154 8.361 L 18.154 8.243 L 18.862 8.243 L 18.862 8.361 L 19.57 8.361 L 19.57 8.243 L 20.278 8.243 L 20.278 8.361 L 20.986 8.361 L 20.986 8.243 L 21.694 8.243 L 21.694 8.361 L 22.402 8.361 L 22.402 8.243 L 23.11 8.243 L 23.11 8.361 L 23.818 8.361 L 23.818 8.243 L 24.526 8.243 L 24.526 8.361 L 25.234 8.361 L 25.234 8.243 L 25.84 8.243 L 25.84 7.221 L 25.958 7.221 L 25.958 6.513 L 25.84 6.513 L 25.84 5.805 L 25.958 5.805 L 25.958 5.097 L 25.84 5.097 L 25.84 4.389 L 25.958 4.389 L 25.958 3.681 L 25.84 3.681 L 25.84 2.973 L 25.958 2.973 L 25.958 2.265 L 25.84 2.265 L 25.84 1.557 L 25.84 1.243 L 25.234 1.243 L 25.234 1.125 L 24.526 1.125 L 24.526 1.243 L 23.818 1.243 L 23.818 1.125 L 23.11 1.125 L 23.11 1.243 L 22.402 1.243 L 22.402 1.125 L 21.694 1.125 L 21.694 1.243 L 20.986 1.243 L 20.986 1.125 L 20.278 1.125 L 20.278 1.243 L 19.57 1.243 L 19.57 1.125 L 18.862 1.125 L 18.862 1.243 L 18.154 1.243 L 18.154 1.125 L 17.446 1.125 L 17.446 1.243 L 16.84 1.243 Z" id="bottom_outsideCutPath" stroke="#FF0000" stroke-width="0.1" style="stroke:#FF0000;stroke-width:0.1" vector-effect="non-scaling-stroke"/><path d="M 23.721 5.286 L 23.603 5.286 L 23.603 4.782 A 0.346 0.346 0 0 0 23.6 4.731 Q 23.592 4.676 23.564 4.643 A 0.123 0.123 0 0 0 23.506 4.606 Q 23.486 4.599 23.461 4.597 A 0.272 0.272 0 0 0 23.441 4.597 Q 23.364 4.597 23.315 4.628 A 0.155 0.155 0 0 0 23.279 4.66 Q 23.227 4.722 23.227 4.852 A 0.604 0.604 0 0 0 23.227 4.853 L 23.227 5.286 L 23.109 5.286 L 23.109 4.782 A 0.346 0.346 0 0 0 23.106 4.731 Q 23.098 4.676 23.07 4.643 A 0.123 0.123 0 0 0 23.013 4.606 Q 22.984 4.597 22.946 4.597 A 0.291 0.291 0 0 0 22.886 4.603 Q 22.849 4.61 22.821 4.629 A 0.154 0.154 0 0 0 22.785 4.663 A 0.197 0.197 0 0 0 22.756 4.718 Q 22.737 4.772 22.734 4.852 A 0.817 0.817 0 0 0 22.733 4.879 L 22.733 5.286 L 22.616 5.286 L 22.616 4.511 L 22.712 4.511 L 22.731 4.617 L 22.736 4.617 Q 22.77 4.561 22.83 4.529 Q 22.89 4.497 22.965 4.497 A 0.384 0.384 0 0 1 23.052 4.506 Q 23.105 4.518 23.142 4.547 A 0.2 0.2 0 0 1 23.203 4.629 L 23.208 4.629 A 0.245 0.245 0 0 1 23.301 4.537 A 0.294 0.294 0 0 1 23.309 4.532 A 0.297 0.297 0 0 1 23.418 4.499 A 0.37 0.37 0 0 1 23.459 4.497 A 0.408 0.408 0 0 1 23.532 4.503 Q 23.574 4.511 23.606 4.528 A 0.193 0.193 0 0 1 23.655 4.565 A 0.202 0.202 0 0 1 23.699 4.635 Q 23.71 4.667 23.716 4.706 A 0.538 0.538 0 0 1 23.721 4.78 L 23.721 5.286 Z M 19.077 5.186 L 19.068 5.186 L 19.043 5.286 L 18.959 5.286 L 18.959 4.186 L 19.077 4.186 L 19.077 4.453 A 2.446 2.446 0 0 1 19.075 4.536 Q 19.074 4.575 19.071 4.61 A 1.437 1.437 0 0 1 19.071 4.614 L 19.077 4.614 A 0.267 0.267 0 0 1 19.271 4.501 A 0.401 0.401 0 0 1 19.32 4.498 A 0.359 0.359 0 0 1 19.421 4.512 A 0.268 0.268 0 0 1 19.557 4.603 A 0.346 0.346 0 0 1 19.617 4.719 Q 19.641 4.796 19.641 4.898 A 0.688 0.688 0 0 1 19.632 5.013 Q 19.622 5.075 19.599 5.125 A 0.33 0.33 0 0 1 19.556 5.194 A 0.278 0.278 0 0 1 19.359 5.298 A 0.398 0.398 0 0 1 19.32 5.3 A 0.356 0.356 0 0 1 19.23 5.289 A 0.31 0.31 0 0 1 19.182 5.272 A 0.26 0.26 0 0 1 19.077 5.186 Z M 21.076 5.189 L 21.076 5.279 A 0.115 0.115 0 0 1 21.063 5.284 Q 21.048 5.289 21.027 5.293 A 0.44 0.44 0 0 1 21.02 5.294 Q 20.986 5.299 20.957 5.3 A 0.302 0.302 0 0 1 20.953 5.3 Q 20.774 5.3 20.738 5.149 A 0.369 0.369 0 0 1 20.729 5.063 L 20.729 4.602 L 20.618 4.602 L 20.618 4.546 L 20.729 4.497 L 20.778 4.332 L 20.846 4.332 L 20.846 4.511 L 21.071 4.511 L 21.071 4.602 L 20.846 4.602 L 20.846 5.058 A 0.236 0.236 0 0 0 20.849 5.1 Q 20.854 5.122 20.862 5.14 A 0.114 0.114 0 0 0 20.879 5.166 Q 20.912 5.203 20.97 5.203 Q 21.002 5.203 21.03 5.198 Q 21.058 5.194 21.075 5.189 A 0.176 0.176 0 0 0 21.076 5.189 Z M 21.587 5.189 L 21.587 5.279 A 0.115 0.115 0 0 1 21.574 5.284 Q 21.559 5.289 21.538 5.293 A 0.44 0.44 0 0 1 21.531 5.294 Q 21.497 5.299 21.468 5.3 A 0.302 0.302 0 0 1 21.464 5.3 Q 21.285 5.3 21.249 5.149 A 0.369 0.369 0 0 1 21.24 5.063 L 21.24 4.602 L 21.129 4.602 L 21.129 4.546 L 21.24 4.497 L 21.289 4.332 L 21.357 4.332 L 21.357 4.511 L 21.582 4.511 L 21.582 4.602 L 21.357 4.602 L 21.357 5.058 A 0.236 0.236 0 0 0 21.36 5.1 Q 21.364 5.122 21.373 5.14 A 0.114 0.114 0 0 0 21.39 5.166 Q 21.423 5.203 21.481 5.203 Q 21.512 5.203 21.541 5.198 Q 21.569 5.194 21.586 5.189 A 0.176 0.176 0 0 0 21.587 5.189 Z M 20.504 5.016 A 0.606 0.606 0 0 0 20.515 4.898 A 0.689 0.689 0 0 0 20.514 4.879 Q 20.51 4.708 20.419 4.605 A 0.307 0.307 0 0 0 20.276 4.513 A 0.394 0.394 0 0 0 20.161 4.497 A 0.456 0.456 0 0 0 20.079 4.504 A 0.31 0.31 0 0 0 19.898 4.603 A 0.324 0.324 0 0 0 19.858 4.658 Q 19.827 4.711 19.814 4.78 A 0.609 0.609 0 0 0 19.803 4.898 A 0.587 0.587 0 0 0 19.81 4.993 A 0.434 0.434 0 0 0 19.847 5.111 A 0.385 0.385 0 0 0 19.855 5.128 A 0.318 0.318 0 0 0 19.971 5.251 A 0.327 0.327 0 0 0 20.046 5.284 A 0.377 0.377 0 0 0 20.156 5.3 A 0.456 0.456 0 0 0 20.235 5.293 A 0.313 0.313 0 0 0 20.419 5.193 A 0.327 0.327 0 0 0 20.458 5.14 Q 20.49 5.086 20.504 5.016 Z M 22.4 5.016 A 0.606 0.606 0 0 0 22.411 4.898 A 0.689 0.689 0 0 0 22.41 4.879 Q 22.406 4.708 22.315 4.605 A 0.307 0.307 0 0 0 22.172 4.513 A 0.394 0.394 0 0 0 22.057 4.497 A 0.456 0.456 0 0 0 21.975 4.504 A 0.31 0.31 0 0 0 21.794 4.603 A 0.324 0.324 0 0 0 21.754 4.658 Q 21.723 4.711 21.71 4.78 A 0.609 0.609 0 0 0 21.699 4.898 A 0.587 0.587 0 0 0 21.706 4.993 A 0.434 0.434 0 0 0 21.743 5.111 A 0.385 0.385 0 0 0 21.751 5.128 A 0.318 0.318 0 0 0 21.867 5.251 A 0.327 0.327 0 0 0 21.942 5.284 A 0.377 0.377 0 0 0 22.052 5.3 A 0.456 0.456 0 0 0 22.131 5.293 A 0.313 0.313 0 0 0 22.315 5.193 A 0.327 0.327 0 0 0 22.354 5.14 Q 22.386 5.086 22.4 5.016 Z M 19.925 4.898 A 0.594 0.594 0 0 0 19.93 4.983 Q 19.936 5.026 19.95 5.061 A 0.246 0.246 0 0 0 19.984 5.124 A 0.192 0.192 0 0 0 20.109 5.198 A 0.291 0.291 0 0 0 20.158 5.202 A 0.272 0.272 0 0 0 20.23 5.193 A 0.19 0.19 0 0 0 20.333 5.124 A 0.252 0.252 0 0 0 20.373 5.048 Q 20.384 5.013 20.389 4.969 A 0.618 0.618 0 0 0 20.393 4.898 A 0.585 0.585 0 0 0 20.388 4.814 Q 20.375 4.727 20.333 4.673 A 0.193 0.193 0 0 0 20.213 4.602 A 0.296 0.296 0 0 0 20.157 4.597 A 0.279 0.279 0 0 0 20.088 4.605 A 0.187 0.187 0 0 0 19.983 4.672 Q 19.925 4.748 19.925 4.898 Z M 21.821 4.898 A 0.594 0.594 0 0 0 21.826 4.983 Q 21.832 5.026 21.846 5.061 A 0.246 0.246 0 0 0 21.88 5.124 A 0.192 0.192 0 0 0 22.005 5.198 A 0.291 0.291 0 0 0 22.054 5.202 A 0.272 0.272 0 0 0 22.126 5.193 A 0.19 0.19 0 0 0 22.229 5.124 A 0.252 0.252 0 0 0 22.269 5.048 Q 22.28 5.013 22.285 4.969 A 0.618 0.618 0 0 0 22.289 4.898 A 0.585 0.585 0 0 0 22.283 4.814 Q 22.271 4.727 22.229 4.673 A 0.193 0.193 0 0 0 22.109 4.602 A 0.296 0.296 0 0 0 22.053 4.597 A 0.279 0.279 0 0 0 21.983 4.605 A 0.187 0.187 0 0 0 21.879 4.672 Q 21.821 4.748 21.821 4.898 Z M 19.303 4.597 A 0.33 0.33 0 0 0 19.239 4.602 Q 19.203 4.61 19.175 4.626 A 0.156 0.156 0 0 0 19.13 4.666 Q 19.083 4.726 19.077 4.859 A 0.904 0.904 0 0 0 19.077 4.898 A 0.776 0.776 0 0 0 19.08 4.978 Q 19.089 5.059 19.116 5.108 A 0.177 0.177 0 0 0 19.131 5.131 A 0.17 0.17 0 0 0 19.217 5.19 Q 19.246 5.199 19.281 5.201 A 0.377 0.377 0 0 0 19.306 5.202 Q 19.414 5.202 19.467 5.123 A 0.269 0.269 0 0 0 19.5 5.051 Q 19.51 5.017 19.515 4.975 A 0.672 0.672 0 0 0 19.52 4.896 Q 19.52 4.753 19.472 4.679 A 0.195 0.195 0 0 0 19.467 4.671 A 0.171 0.171 0 0 0 19.358 4.602 A 0.271 0.271 0 0 0 19.303 4.597 Z" id="bottom_labelLayer" stroke="#777777" fill="#777777" style="stroke:#777777;fill:#777777" vector-effect="non-scaling-stroke"/></g></svg>