<?xml version="1.0" encoding="UTF-8" standalone="no"?>
<svg
   xmlns:dc="http://purl.org/dc/elements/1.1/"
   xmlns:cc="http://creativecommons.org/ns#"
   xmlns:rdf="http://www.w3.org/1999/02/22-rdf-syntax-ns#"
   xmlns:svg="http://www.w3.org/2000/svg"
   xmlns="http://www.w3.org/2000/svg"
   xmlns:sodipodi="http://sodipodi.sourceforge.net/DTD/sodipodi-0.dtd"
   xmlns:inkscape="http://www.inkscape.org/namespaces/inkscape"
   width="110mm"
   height="110mm"
   viewBox="0 0 110 110"
   version="1.1"
   id="svg8"
   inkscape:version="1.0.2-2 (e86c870879, 2021-01-15)"
   sodipodi:docname="sleevelogo.svg">
  <defs
     id="defs2" />
  <sodipodi:namedview
     id="base"
     pagecolor="#ffffff"
     bordercolor="#666666"
     borderopacity="1.0"
     inkscape:pageopacity="0.0"
     inkscape:pageshadow="2"
     inkscape:zoom="1.28"
     inkscape:cx="207.19275"
     inkscape:cy="242.00003"
     inkscape:document-units="mm"
     inkscape:current-layer="layer1"
     inkscape:document-rotation="0"
     showgrid="false"
     inkscape:window-width="1431"
     inkscape:window-height="1030"
     inkscape:window-x="248"
     inkscape:window-y="73"
     inkscape:window-maximized="0" />
  <metadata
     id="metadata5">
    <rdf:RDF>
      <cc:Work
         rdf:about="">
        <dc:format>image/svg+xml</dc:format>
        <dc:type
           rdf:resource="http://purl.org/dc/dcmitype/StillImage" />
        <dc:title></dc:title>
      </cc:Work>
    </rdf:RDF>
  </metadata>
  <g
     inkscape:label="Layer 1"
     inkscape:groupmode="layer"
     id="layer1">
    <path
       style="fill:none;stroke:#000000;stroke-width:0.111172;stroke-miterlimit:4;stroke-dasharray:none;stroke-opacity:1"
       d="m 27.801268,66.631909 c -0.06322,-0.06821 -0.114952,-0.403067 -0.114952,-0.744126 V 65.26768 h 5.690043 5.690044 v 0.744126 0.744125 H 33.49131 c -3.066302,0 -5.626821,-0.05581 -5.690042,-0.124022 z M 42.170062,66.011806 V 65.26768 h 5.690043 5.690042 v 0.744126 0.744125 h -5.690042 -5.690043 z m 14.483745,0 V 65.26768 h 5.690042 5.690043 v 0.744126 0.744125 h -5.690043 -5.690042 z m 14.483744,0 V 65.26768 h 5.690043 5.690042 v 0.744126 0.744125 H 76.827594 71.137551 Z M 27.686316,61.17499 v -0.744125 h 12.931916 12.931915 v 0.744125 0.744127 H 40.618232 27.686316 Z m 28.967491,0 v -0.744125 h 12.931914 12.931915 v 0.744125 0.744127 H 69.585721 56.653807 Z M 27.801798,57.144884 c -0.06351,-0.06852 -0.115482,-0.40364 -0.115482,-0.744699 v -0.620103 h 27.42607 27.426068 l -0.05352,0.697617 -0.05351,0.697617 -27.257072,0.04708 c -14.99139,0.02589 -27.309039,-0.009 -27.372553,-0.07752 z M 1.6500619,51.687391 V 50.943266 H 55.101976 108.55389 v 0.744125 0.744126 H 55.101976 1.6500619 Z M 27.686316,43.781059 v -2.325392 h 0.431065 c 0.402326,0 0.431063,0.062 0.431063,0.930157 v 0.930158 h 0.948341 0.948341 v -0.930158 c 0,-0.806134 0.04598,-0.930157 0.344851,-0.930157 0.326458,0 0.34485,0.124023 0.34485,2.325392 0,2.20137 -0.01839,2.325393 -0.34485,2.325393 -0.303052,0 -0.344851,-0.124023 -0.344851,-1.023173 v -1.023173 h -0.948341 -0.948341 v 1.023173 c 0,0.967363 -0.02351,1.023173 -0.431063,1.023173 h -0.431065 z m 5.159504,1.781608 c -0.563323,-0.607772 -0.640585,-1.236099 -0.251753,-2.047349 0.290246,-0.605559 0.572506,-0.757432 1.407721,-0.757432 0.856355,0 1.443678,0.68114 1.443678,1.674284 0,1.584554 -1.552888,2.259854 -2.599646,1.130497 z m 1.530608,-0.42358 c 0.336938,-0.363524 0.2557,-1.409781 -0.126606,-1.63053 -0.431333,-0.249056 -0.454378,-0.24609 -0.774933,0.09976 -0.530663,0.572536 -0.2486,1.754009 0.418747,1.754009 0.151735,0 0.368991,-0.100446 0.482792,-0.223238 z m 2.460852,0.658155 c -0.306987,-0.231989 -0.35726,-0.464837 -0.35726,-1.654668 0,-1.249385 0.03289,-1.384688 0.336622,-1.384688 0.291799,0 0.343459,0.152249 0.387958,1.143354 0.05393,1.201321 0.329356,1.635641 0.890026,1.403515 0.221308,-0.09163 0.282074,-0.378531 0.282074,-1.331826 0,-1.172024 0.01526,-1.215043 0.431063,-1.215043 0.427289,0 0.431065,0.0144 0.431065,1.64428 v 1.644279 l -1.022144,0.01036 c -0.628549,0.0064 -1.159714,-0.09357 -1.379404,-0.259591 z m 3.924215,0.07668 c -0.147126,-0.127896 -0.314704,-0.379039 -0.372396,-0.558093 -0.08097,-0.251294 -0.01017,-0.325557 0.310582,-0.325557 0.228512,0 0.463429,0.08372 0.52204,0.186032 0.16266,0.283959 0.948341,0.225193 0.948341,-0.07094 0,-0.149157 -0.324329,-0.345073 -0.773074,-0.466983 -0.616845,-0.16758 -0.796201,-0.309441 -0.887517,-0.701989 -0.179237,-0.77048 0.118113,-1.078314 1.102259,-1.141129 0.745914,-0.04761 0.912111,0.0061 1.151209,0.372063 0.26315,0.40277 0.259558,0.431096 -0.06162,0.485893 -0.187578,0.03201 -0.505196,-0.0366 -0.705819,-0.152432 -0.274162,-0.158305 -0.425801,-0.155972 -0.610485,0.0094 -0.34279,0.30694 -0.188445,0.481747 0.537599,0.608865 0.342684,0.06 0.732526,0.207101 0.866315,0.326899 0.365772,0.327518 0.292623,1.044006 -0.139966,1.370911 -0.460462,0.347969 -1.516116,0.379881 -1.887477,0.05705 z m 3.626093,-0.123088 c -0.332924,-0.29086 -0.407058,-0.531017 -0.407058,-1.318657 0,-1.171817 0.441821,-1.674282 1.472203,-1.674282 0.746314,0 1.372818,0.648183 1.372818,1.420323 0,0.408723 -0.06667,0.439991 -0.938164,0.439991 -0.984166,0 -1.288392,0.185521 -0.889676,0.542536 0.147885,0.132418 0.504928,0.166492 0.946443,0.09033 0.80053,-0.138111 0.93899,0.102377 0.325754,0.565799 -0.522173,0.394605 -1.389905,0.364166 -1.88232,-0.06603 z m 1.575835,-1.870205 c 0,-0.317365 -0.589916,-0.546662 -0.909686,-0.353589 -0.481422,0.290675 -0.342188,0.533077 0.306197,0.533077 0.33192,0 0.603489,-0.08077 0.603489,-0.179488 z m 3.699312,1.769208 c -0.545567,-0.588616 -0.576097,-1.701929 -0.06587,-2.401774 0.290141,-0.39796 0.501288,-0.490166 1.122454,-0.490166 1.129806,0 1.733312,0.906771 1.423857,2.139361 -0.304571,1.213146 -1.66968,1.627327 -2.48045,0.752579 z m 1.639814,-0.647334 c 0.265509,-0.535257 0.218504,-0.899217 -0.170311,-1.318713 -0.42361,-0.457036 -0.968007,-0.236576 -1.12944,0.457384 -0.230284,0.989921 0.873218,1.721199 1.299751,0.861329 z m 2.420023,-0.122662 c 0,-1.070167 -0.04399,-1.239029 -0.344851,-1.323917 -0.189667,-0.05351 -0.34485,-0.245195 -0.34485,-0.425964 0,-0.180769 0.155183,-0.372451 0.34485,-0.425966 0.228219,-0.06439 0.344851,-0.253749 0.344851,-0.559887 0,-0.508482 0.277413,-0.688429 1.061299,-0.688429 0.398213,0 0.502704,0.07423 0.458306,0.325555 -0.03163,0.179054 -0.231297,0.352306 -0.443708,0.385001 -0.536432,0.08258 -0.497827,0.591663 0.04487,0.591663 0.316113,0 0.431064,0.09922 0.431064,0.372063 0,0.272847 -0.114951,0.372062 -0.431064,0.372062 -0.418747,0 -0.431063,0.0372 -0.431063,1.30222 0,1.178198 -0.03285,1.302219 -0.344852,1.302219 -0.309983,0 -0.344851,-0.124021 -0.344852,-1.22662 z m 4.478802,-0.308139 c -0.212792,-0.844117 -0.425362,-1.890543 -0.472379,-2.325392 -0.07561,-0.699297 -0.04532,-0.790632 0.262268,-0.790632 0.292972,0 0.381881,0.197802 0.564423,1.255712 0.342176,1.983053 0.435635,2.144501 0.673061,1.162695 0.494296,-2.044004 0.622197,-2.322913 1.092916,-2.383271 0.401596,-0.05148 0.472797,0.03059 0.64547,0.744127 0.383943,1.586567 0.570923,2.197238 0.672768,2.197238 0.05697,0 0.243112,-0.669713 0.413634,-1.48825 0.257247,-1.234842 0.367078,-1.488251 0.645028,-1.488251 0.430898,0 0.418449,0.210864 -0.153779,2.604439 -0.428771,1.793505 -0.502658,1.957851 -0.903021,2.008609 -0.413695,0.05245 -0.456776,-0.03149 -0.840593,-1.637711 -0.222503,-0.931147 -0.457688,-1.625736 -0.522634,-1.543532 -0.112812,0.142789 -0.265408,0.681411 -0.687969,2.428346 -0.156637,0.647557 -0.264631,0.790632 -0.596772,0.790632 -0.361721,0 -0.447324,-0.165797 -0.792421,-1.534759 z m 5.981681,1.410738 c -0.06322,-0.06821 -0.11495,-0.821637 -0.11495,-1.674282 0,-1.529591 0.0058,-1.550261 0.431063,-1.550261 0.427871,0 0.431064,0.01241 0.431064,1.674282 0,1.499526 -0.033,1.674282 -0.316113,1.674282 -0.173863,0 -0.367842,-0.05581 -0.431064,-0.124021 z m 2.126581,-0.248041 c -0.460207,-0.496523 -0.434905,-0.744127 0.07603,-0.744127 0.231489,0 0.468842,0.08372 0.527454,0.186032 0.158312,0.276369 0.94834,0.226203 0.94834,-0.06021 0,-0.135436 -0.36856,-0.365649 -0.819021,-0.511587 -0.724983,-0.234869 -0.824982,-0.331234 -0.870934,-0.839274 -0.03062,-0.338511 0.05229,-0.667249 0.202136,-0.801417 0.371943,-0.333043 1.839677,-0.188412 2.067549,0.203738 0.266997,0.459484 0.0029,0.62868 -0.598878,0.383624 -0.566872,-0.230855 -1.068117,-0.126747 -0.966913,0.200827 0.03469,0.112275 0.367731,0.271208 0.740096,0.353186 0.672235,0.148001 1.108092,0.546714 1.108092,1.013662 0,0.503645 -0.675963,0.987617 -1.379404,0.987617 -0.459802,0 -0.804653,-0.124022 -1.034553,-0.372063 z m 3.699313,-0.08456 c -0.553093,-0.596733 -0.576209,-1.701777 -0.05068,-2.4226 0.329109,-0.451408 0.459794,-0.500381 1.120766,-0.420001 l 0.748217,0.09099 v -0.721276 c 0,-0.645337 0.04538,-0.721272 0.431063,-0.721272 h 0.431065 v 2.325392 c 0,2.177801 -0.02125,2.325391 -0.334675,2.325391 -0.184071,0 -0.386808,-0.09101 -0.450526,-0.202239 -0.08342,-0.145636 -0.168316,-0.145636 -0.3033,0 -0.330483,0.35656 -1.146537,0.226159 -1.591932,-0.254384 z m 1.611394,-0.51074 c 0.292954,-0.31607 0.256609,-1.184816 -0.06405,-1.530771 -0.330833,-0.356939 -0.436842,-0.362092 -0.843827,-0.04102 -0.311999,0.246142 -0.41778,1.191124 -0.179833,1.606511 0.148475,0.259196 0.835613,0.23726 1.087704,-0.03472 z m 2.526818,0.51074 c -0.545567,-0.588616 -0.576097,-1.701929 -0.06587,-2.401774 0.279475,-0.383328 0.507437,-0.490167 1.04589,-0.490167 0.378687,0 0.835209,0.0847 1.014494,0.188222 0.387119,0.223528 0.681507,1.241016 0.55904,1.932209 -0.205943,1.162335 -1.75698,1.630951 -2.553562,0.77151 z m 1.611394,-0.51074 c 0.537314,-0.579711 -0.06277,-1.985323 -0.729702,-1.709205 -0.755695,0.312872 -0.653493,1.932443 0.121945,1.932443 0.220466,0 0.493956,-0.100447 0.607757,-0.223238 z m 2.103592,-0.679474 v -1.646833 l 1.114574,-0.0205 c 0.613014,-0.01132 1.160864,0.06032 1.217443,0.159089 0.06571,0.114712 0.219567,0.112195 0.425921,-0.0069 0.483759,-0.27933 1.320052,-0.224932 1.626597,0.105798 0.198141,0.213775 0.270954,0.667185 0.270954,1.687222 0,1.340141 -0.01523,1.392551 -0.387957,1.335439 -0.350202,-0.05366 -0.393051,-0.176661 -0.440293,-1.263827 -0.05501,-1.266025 -0.242539,-1.584804 -0.757396,-1.287517 -0.250522,0.144655 -0.311034,0.413575 -0.311034,1.382254 0,1.158814 -0.01571,1.202658 -0.431064,1.202658 -0.414741,0 -0.431064,-0.04493 -0.431064,-1.186426 0,-0.82765 -0.07822,-1.256455 -0.258638,-1.418013 -0.484949,-0.434228 -0.775916,0.09753 -0.775916,1.418013 0,1.141499 -0.01633,1.186426 -0.431063,1.186426 -0.42734,0 -0.431064,-0.01423 -0.431064,-1.646836 z m -13.67313,-2.377421 c -0.27093,-0.292309 -0.09874,-0.626536 0.322793,-0.626536 0.328651,0 0.428738,0.08387 0.385979,0.32342 -0.06045,0.338647 -0.501154,0.527119 -0.708772,0.303116 z m 12.1213,-2.765895 c 0,-0.372064 0.08621,-0.46508 0.431064,-0.46508 0.344851,0 0.431064,0.09301 0.431064,0.46508 0,0.372062 -0.08621,0.465078 -0.431064,0.465078 -0.34485,0 -0.431064,-0.09301 -0.431064,-0.465078 z m 1.206979,0 c 0,-0.341057 0.09196,-0.46508 0.344851,-0.46508 0.252891,0 0.344851,0.124023 0.344851,0.46508 0,0.341056 -0.09196,0.465078 -0.344851,0.465078 -0.252891,0 -0.344851,-0.124022 -0.344851,-0.465078 z m 4.138213,0 c 0,-0.372064 0.08621,-0.46508 0.431064,-0.46508 0.34485,0 0.431063,0.09301 0.431063,0.46508 0,0.372062 -0.08621,0.465078 -0.431063,0.465078 -0.344851,0 -0.431064,-0.09301 -0.431064,-0.465078 z M 29.841636,37.921072 c -0.05861,-0.102324 -0.451148,-0.186031 -0.872304,-0.186031 -0.95489,0 -1.455441,-0.472758 -1.455441,-1.374626 0,-0.887667 0.459181,-1.417889 1.33806,-1.545074 0.402076,-0.05819 0.731047,-0.178483 0.731047,-0.267328 0,-0.08885 0.193979,-0.161537 0.431063,-0.161537 0.424022,0 0.431065,0.02442 0.431065,1.494154 v 1.494155 l 2.025999,-0.05241 c 2.017098,-0.05219 2.026231,-0.05445 2.078716,-0.51749 0.137382,-1.212019 0.390322,-1.663218 1.052359,-1.87722 0.534399,-0.172744 0.745522,-0.156292 1.192177,0.09291 0.534779,0.298367 0.665864,0.59042 0.759127,1.691296 l 0.04729,0.558093 2.745831,0.0514 c 2.848318,0.05332 3.021468,0.0112 3.027784,-0.735727 0.0047,-0.551342 -0.497341,-0.896937 -1.302869,-0.896937 -0.999836,0 -0.999358,-0.346202 0.0021,-1.572552 0.646482,-0.791599 0.790697,-0.887258 1.023441,-0.678856 0.242678,0.217296 0.224318,0.308501 -0.176123,0.874934 l -0.447041,0.632349 h 0.418573 c 0.70537,0 1.058728,0.430699 1.163884,1.418617 l 0.09652,0.906774 2.875204,0.05095 c 2.691523,0.04769 2.881817,0.02846 2.97873,-0.300983 0.05694,-0.19356 0.02346,-0.579123 -0.07438,-0.856807 -0.164013,-0.465423 -0.241839,-0.500056 -0.995838,-0.443141 -0.966079,0.07292 -1.137177,-0.326253 -0.32079,-0.748412 0.396008,-0.20478 0.632183,-0.213414 1.161059,-0.04245 0.730478,0.236128 1.014404,0.643171 1.014404,1.454281 0,0.873972 0.245406,0.979592 2.276018,0.979592 h 1.862196 v -1.953339 -1.95333 h 0.431063 0.431064 v 2.102154 c 0,1.386969 -0.07039,2.178105 -0.206911,2.325393 -0.266593,0.287629 -4.549099,0.313234 -4.712391,0.02817 -0.07779,-0.135803 -0.178598,-0.135198 -0.331809,0.0019 -0.285807,0.255917 -15.092555,0.23738 -15.381495,-0.01925 -0.128725,-0.114331 -0.24007,-0.108165 -0.311922,0.01726 -0.146839,0.25634 -4.858976,0.264845 -5.005514,0.009 z m 6.793937,-0.976664 c 0.228584,-0.662407 -0.03232,-1.162697 -0.606369,-1.162697 -0.418236,0 -0.506445,0.08404 -0.55349,0.527302 -0.08149,0.767794 0.07419,1.053965 0.573386,1.053965 0.300655,0 0.488228,-0.133872 0.586473,-0.41857 z m -7.083878,-0.663847 c 0.05307,-0.59654 0.03568,-0.615342 -0.515863,-0.558093 -0.386815,0.04015 -0.589823,0.167672 -0.629877,0.395665 -0.106151,0.604252 0.111867,0.901256 0.615679,0.838733 0.398523,-0.04946 0.484006,-0.158524 0.530061,-0.676305 z m 28.998792,-0.49885 v -2.325392 h 0.431065 0.431063 v 2.325392 2.325393 h -0.431063 -0.431065 z m 6.138139,2.02715 c -0.05679,-0.159654 -0.103241,-0.743862 -0.103241,-1.29824 0,-0.874473 0.04442,-1.007956 0.335404,-1.007956 0.277804,0 0.344429,0.151749 0.387957,0.883649 l 0.05255,0.883648 3.146766,0.05071 3.146766,0.05071 v -1.120388 c 0,-1.06497 0.02089,-1.120384 0.42246,-1.120384 0.393351,0 0.426022,0.0737 0.474171,1.069679 l 0.0517,1.06968 h 2.069107 2.069106 l 0.05172,-1.06968 c 0.04784,-0.989613 0.08269,-1.069679 0.465566,-1.069679 0.382878,0 0.417725,0.08007 0.465566,1.069679 l 0.05172,1.06968 h 1.982894 1.982893 l 0.05171,-1.06968 c 0.04815,-0.99598 0.08082,-1.069679 0.474171,-1.069679 0.401897,0 0.422459,0.05492 0.422459,1.128418 0,2.015746 0.917426,1.831132 -9.123533,1.835932 -7.793913,0.0037 -8.786196,-0.02825 -8.877903,-0.286091 z m 2.827989,-3.887462 c 0,-0.341058 0.09196,-0.46508 0.344851,-0.46508 0.252891,0 0.344851,0.124022 0.344851,0.46508 0,0.341057 -0.09196,0.465077 -0.344851,0.465077 -0.252891,0 -0.344851,-0.12402 -0.344851,-0.465077 z m 1.149505,0.341057 c -0.06322,-0.06821 -0.114952,-0.277497 -0.114952,-0.465079 0,-0.239773 0.128013,-0.341058 0.431065,-0.341058 0.34485,0 0.431063,0.09301 0.431063,0.46508 0,0.326964 -0.09387,0.465077 -0.316113,0.465077 -0.173864,0 -0.367842,-0.05581 -0.431063,-0.12402 z M 28.203594,33.363304 c 0,-0.341058 0.09196,-0.465078 0.34485,-0.465078 0.252892,0 0.344851,0.12402 0.344851,0.465078 0,0.341057 -0.09196,0.465079 -0.344851,0.465079 -0.252891,0 -0.34485,-0.124022 -0.34485,-0.465079 z m 1.065667,0.0465 c 0.03616,-0.274734 0.173602,-0.41857 0.399949,-0.41857 0.226349,0 0.363786,0.143836 0.39995,0.41857 0.0452,0.343355 -0.02667,0.41857 -0.39995,0.41857 -0.373276,0 -0.445147,-0.07522 -0.399949,-0.41857 z"
       id="path847" />
  </g>
</svg>
