<?xml version="1.0" encoding="UTF-8" standalone="no"?>
<svg
   xmlns:dc="http://purl.org/dc/elements/1.1/"
   xmlns:cc="http://creativecommons.org/ns#"
   xmlns:rdf="http://www.w3.org/1999/02/22-rdf-syntax-ns#"
   xmlns:svg="http://www.w3.org/2000/svg"
   xmlns="http://www.w3.org/2000/svg"
   xmlns:sodipodi="http://sodipodi.sourceforge.net/DTD/sodipodi-0.dtd"
   xmlns:inkscape="http://www.inkscape.org/namespaces/inkscape"
   width="120mm"
   height="120mm"
   viewBox="0 0 120 120"
   version="1.1"
   id="svg8"
   sodipodi:docname="logo1.svg"
   inkscape:version="1.0.2-2 (e86c870879, 2021-01-15)">
  <defs
     id="defs2" />
  <sodipodi:namedview
     id="base"
     pagecolor="#ffffff"
     bordercolor="#666666"
     borderopacity="1.0"
     inkscape:pageopacity="0.0"
     inkscape:pageshadow="2"
     inkscape:zoom="0.33748292"
     inkscape:cx="270.78035"
     inkscape:cy="211.64851"
     inkscape:document-units="mm"
     inkscape:current-layer="layer1"
     inkscape:document-rotation="0"
     showgrid="false"
     inkscape:lockguides="false"
     units="mm"
     inkscape:window-width="1069"
     inkscape:window-height="1030"
     inkscape:window-x="405"
     inkscape:window-y="62"
     inkscape:window-maximized="0" />
  <metadata
     id="metadata5">
    <rdf:RDF>
      <cc:Work
         rdf:about="">
        <dc:format>image/svg+xml</dc:format>
        <dc:type
           rdf:resource="http://purl.org/dc/dcmitype/StillImage" />
        <dc:title></dc:title>
      </cc:Work>
    </rdf:RDF>
  </metadata>
  <g
     inkscape:label="Layer 1"
     inkscape:groupmode="layer"
     id="layer1">
    <text
       xml:space="preserve"
       style="font-style:normal;font-weight:normal;font-size:10.5833px;line-height:1.25;font-family:sans-serif;fill:none;fill-opacity:1;stroke:#000000;stroke-width:0.1;stroke-miterlimit:4;stroke-dasharray:none;stroke-opacity:0.97166"
       x="3.202055"
       y="63.03397"
       id="text880"><tspan
         sodipodi:role="line"
         id="tspan878"
         x="3.202055"
         y="63.03397"
         style="font-size:22.5778px;fill:none;stroke:#000000;stroke-width:0.1;stroke-miterlimit:4;stroke-dasharray:none;stroke-opacity:0.97166">Aljazri Lab</tspan></text>
    <path
       id="path1014"
       style="fill:none;fill-rule:evenodd;stroke:#000000;stroke-width:0.430076;stroke-opacity:0.97166"
       d="m 192.41016,25.511719 c -1.80693,-0.0072 -3.61337,0.0123 -5.41993,0.05859 C 133.83483,26.8139 81.772767,52.573055 48.767578,94.308594 19.33283,130.98393 4.6259187,179.25132 9.3320312,226.10742 c 3.8764618,42.29231 22.9473728,83.02567 53.2011718,112.875 30.672594,30.63209 72.466727,49.91184 115.748047,52.92578 15.55007,1.19606 33.07082,0.32778 48.55078,-2.4707 0.20592,1.36129 0.45587,2.81175 0.73633,4.15039 l 1.18359,5.6543 -7.01953,5.07617 c -8.0209,5.80108 -7.94677,5.37264 -2.48047,14.51562 5.90624,9.87886 5.20457,9.47453 11.26367,6.47657 10.78088,-5.33428 10.59407,-5.3119 14.58204,-1.70899 1.94279,1.75518 4.76428,3.82801 6.27148,4.60742 1.5072,0.77938 2.73681,1.70962 2.72656,2.06641 -0.008,0.35679 -0.60844,4.26042 -1.33203,8.67578 -0.81683,4.98463 -0.99888,8.34682 -0.47851,8.86719 0.46099,0.46099 4.18467,1.75576 8.27343,2.87695 4.08877,1.1212 8.30584,2.06768 9.3711,2.10547 1.9364,0.0665 2.33297,-0.70824 7.36133,-14.36133 0.78138,-2.12163 1.42625,-2.38875 6.97656,-2.88281 3.36336,-0.29934 7.12207,-0.76939 8.35351,-1.04492 1.95364,-0.43699 2.72947,0.21579 6.07813,5.12109 6.83172,10.00751 5.45473,9.38215 12.51172,5.67383 3.39878,-1.78602 7.45011,-4.34143 9.00195,-5.67969 l 2.82031,-2.43359 -3.67382,-7.78906 -3.67383,-7.79102 4.06054,-5.40039 c 2.23314,-2.97063 4.21476,-5.86707 4.4043,-6.43555 0.25361,-0.76085 2.67647,-0.63618 9.18164,0.47266 7.19188,1.22578 8.97842,1.29056 9.59766,0.34375 0.99405,-1.51997 4.04829,-11.89819 4.73242,-16.07813 l 0.53711,-3.27148 -6.07031,-2.29102 c -3.33831,-1.26031 -7.11674,-2.6772 -8.39649,-3.14843 -2.10659,-0.77575 -2.38003,-1.4365 -2.88672,-6.97657 -0.30765,-3.36565 -0.80208,-6.96438 -1.09961,-7.99804 -0.44882,-1.55921 0.68349,-2.78093 6.65235,-7.16602 8.20622,-6.0288 8.12232,-5.58812 2.80078,-14.6914 -5.51626,-9.4363 -5.36265,-9.38063 -14.54297,-5.15235 l -7.82031,3.60157 L 315.26172,346 c 0.99662,-1.5181 1.99016,-3.04032 2.9668,-4.58008 l 0.23242,0.21289 5.11914,-4.43359 5.11719,-4.4336 5.91406,2.32227 5.91211,2.32422 0.62695,6.35156 c 0.34432,3.49325 0.80618,6.65399 1.02539,7.02344 0.52743,0.88776 13.86365,0.84157 15.27149,-0.0527 0.60279,-0.38299 1.36901,-3.63806 1.70312,-7.23243 0.45105,-4.85264 0.9763,-6.64282 2.03906,-6.95898 0.7872,-0.23403 3.44196,-1.35029 5.90039,-2.48047 l 4.47071,-2.05664 5.08398,4.42383 c 5.98958,5.20955 6.42148,5.12841 12.86524,-2.41407 l 4.20703,-4.92382 -4.55664,-5.25977 -4.55664,-5.26172 2.40429,-5.44336 c 2.57617,-5.82877 3.47316,-6.41709 9.79688,-6.4375 6.45876,-0.0212 6.5664,-0.16706 6.5664,-8.95898 0,-8.74411 -0.13379,-8.90996 -7.16601,-8.96485 -5.7069,-0.0445 -6.77786,-0.76731 -9.04297,-6.08984 -1.1833,-2.78047 -2.26685,-5.31322 -2.4082,-5.6289 -0.14174,-0.31571 1.56958,-2.81872 3.80468,-5.5625 2.2351,-2.74382 4.06446,-5.41038 4.06446,-5.92579 0,-1.08037 -9.68959,-10.82617 -10.76367,-10.82617 -0.39323,0 -2.98595,1.84827 -5.76172,4.10938 l -5.04688,4.11132 -3.67187,-1.5996 c 0.79671,-2.05347 1.63071,-4.20053 1.91992,-5.30664 11.35153,-42.28971 6.79537,-88.5842 -12.59766,-127.84571 C 338.73571,91.387799 308.05974,60.974089 271.03516,43.427734 246.57507,31.727301 219.51406,25.619238 192.41016,25.511719 Z m -1.88282,8.013672 c 33.51156,-0.179421 66.98928,9.28241 95.12891,27.089843 23.82498,14.967115 44.58728,36.694406 58.53906,61.097656 14.25974,24.76144 22.20638,53.06983 23.09571,81.62109 0.63189,16.84121 -3.11666,37.23603 -7.63868,54.02149 l -0.71679,-6.12891 -0.79297,-6.79492 -7.85156,-0.25781 c -2.22108,-0.0733 -3.85118,-0.15993 -5.06055,-0.11133 -3.62808,0.14574 -3.467,1.49808 -4.0918,8.00586 l -0.56055,5.8457 -5.54492,2.21485 c -3.04928,1.21833 -5.78651,2.32978 -6.08203,2.46875 -0.29556,0.13893 -2.75512,-1.57419 -5.46679,-3.80664 -2.71174,-2.23245 -5.33334,-4.0586 -5.82422,-4.0586 -0.49093,0 -3.2022,2.42102 -6.02539,5.38086 l -5.13282,5.38086 4.41797,5.58984 4.41992,5.58985 -2.08398,4.03125 c -1.1458,2.21665 -2.09577,4.71694 -2.10938,5.55664 -0.0265,1.55158 -1.29284,1.92045 -9.72656,2.83008 -2.13418,0.23017 -4.14985,0.69009 -4.47851,1.02148 -0.75633,0.76241 -0.70718,14.51366 0.0547,15.27539 0.31144,0.31147 3.47738,0.82849 7.03516,1.15039 l 6.46875,0.58594 1.19531,3.58203 c 0.65787,1.97037 1.83246,4.6969 2.60938,6.05859 1.38788,2.43261 1.3393,2.56106 -2.75,7.34766 -4.08322,4.77944 -4.76531,6.23607 -1.20899,9.9668 -1.14177,1.78323 -2.30782,3.54092 -3.48632,5.2832 -1.5842,-0.99419 -2.42708,-2.0898 -2.19336,-2.89453 0.21959,-0.75611 0.87565,-4.74525 1.45898,-8.86328 1.24037,-8.75619 1.66467,-8.19418 -8.11523,-10.77539 -4.39061,-1.15882 -6.99738,-1.93887 -8.72266,-1.9707 -2.87547,-0.0531 -3.30294,1.97431 -5.46094,7.79882 l -3.02344,8.16407 -6.12695,0.57031 c -3.36899,0.31313 -7.12464,0.94906 -8.34766,1.41406 -1.90116,0.7228 -2.45263,0.49544 -3.79882,-1.56836 -0.86597,-1.3276 -3.26539,-4.74192 -5.33203,-7.58789 l -3.75782,-5.17578 -6.09961,3.17969 c -3.35467,1.74856 -7.40443,4.17556 -9,5.39258 l -2.90039,2.21289 3.62891,7.94726 3.63086,7.94727 -4.49414,5.86328 c -2.47155,3.2246 -4.63801,6.26178 -4.81641,6.74804 -0.20636,0.56261 -2.60306,0.43959 -6.59375,-0.33789 -10.65351,-2.07561 -11.62719,-1.89013 -13.24414,2.51954 -1.48328,4.045 -3.32617,12.26919 -3.32617,14.8457 0,1.13091 2.17148,2.35281 8.06055,4.53515 2.94881,1.09274 4.81549,1.79851 6.0039,2.40235 -27.3803,4.77255 -57.68394,3.15861 -84.22461,-5.13672 C 110.2061,367.26989 82.204175,349.53115 61.164062,325.92969 28.785402,290.05029 12.612542,240.29941 17.269531,192.57031 21.862456,143.364 47.977949,96.644956 88.125,67.611328 116.64269,46.74975 151.75243,34.413154 187.28516,33.572266 c 1.08091,-0.0259 2.16117,-0.04109 3.24218,-0.04687 z"
       transform="scale(0.26458333)" />
    <path
       style="fill:none;stroke:#000000;stroke-width:0.377953;stroke-miterlimit:4;stroke-dasharray:none;stroke-opacity:0.97166"
       d="m 278.69727,367.36914 c 1.67792,-0.0227 3.46263,0.25628 5.41015,0.82227 8.19736,2.38303 12.82425,10.32527 10.98047,18.84765 -1.02163,4.7223 -2.69494,7.15237 -6.74219,9.79297 -16.23484,10.59262 -33.83543,-11.40494 -19.81054,-24.75976 3.29079,-3.13354 6.47069,-4.65067 10.16211,-4.70313 z"
       transform="scale(0.26458333)"
       id="path954" />
    <path
       style="fill:none;stroke:#000000;stroke-width:0.377953;stroke-miterlimit:4;stroke-dasharray:none;stroke-opacity:0.97166"
       d="m 279.36133,361.52539 c -10.86245,-0.0113 -20.44001,8.48801 -21.44531,21.01172 -0.71773,8.94145 4.05257,16.70296 12.75586,20.75586 14.90756,6.94212 32.33394,-5.29857 30.6582,-21.53516 -0.85059,-8.24131 -5.39076,-14.72081 -12.70117,-18.125 -3.08318,-1.43573 -6.2261,-2.10443 -9.26758,-2.10742 z"
       transform="scale(0.26458333)"
       id="path952" />
    <path
       style="fill:none;stroke:#000000;stroke-width:0.377953;stroke-miterlimit:4;stroke-dasharray:none;stroke-opacity:0.97166"
       d="m 279.40625,358.17383 c 15.43775,-0.15194 28.00676,14.51149 24.41406,31.13867 -1.62059,7.50017 -6.82177,13.75964 -14.10937,16.97852 -17.9265,7.91788 -37.09194,-5.7652 -35.34375,-25.23438 0.92806,-10.33547 8.09792,-18.91152 18.28515,-21.87305 2.28369,-0.66391 4.54852,-0.98807 6.75391,-1.00976 z"
       transform="scale(0.26458333)"
       id="path950" />
    <path
       style="fill:none;stroke:#000000;stroke-width:0.377953;stroke-miterlimit:4;stroke-dasharray:none;stroke-opacity:0.97166"
       d="m 351.28516,286.28906 c 6.97576,0 12.24023,5.13612 12.24023,11.94141 0,5.59338 -2.21176,9.34954 -6.70312,11.38867 -4.66897,2.11962 -6.50784,2.15015 -10.44532,0.17188 -11.70392,-5.88027 -8.02377,-23.50196 4.90821,-23.50196 z"
       transform="scale(0.26458333)"
       id="path946" />
    <path
       style="fill:none;stroke:#000000;stroke-width:0.377953;stroke-miterlimit:4;stroke-dasharray:none;stroke-opacity:0.97166"
       d="m 351.26953,281.80469 c -10.07269,0 -17.11522,7.76345 -16.37109,18.05078 0.45494,6.28971 3.63612,10.87507 9.6875,13.9668 4.92365,2.51566 9.04924,2.55494 14.05273,0.13281 10.25265,-4.96322 12.88959,-17.92717 5.38477,-26.47461 -3.48235,-3.9662 -7.32435,-5.67578 -12.75391,-5.67578 z"
       transform="scale(0.26458333)"
       id="path944" />
    <path
       style="fill:none;stroke:#000000;stroke-width:0.377953;stroke-miterlimit:4;stroke-dasharray:none;stroke-opacity:0.97166"
       d="m 351.33789,279.0957 c 5.14749,-0.0672 10.38981,1.93811 14.41406,6.52149 3.70617,4.22103 5.07197,8.66676 4.61328,15.00781 -0.46688,6.4551 -3.58649,11.52936 -8.98437,14.60938 -13.22997,7.54906 -29.35156,-1.57928 -29.35156,-16.61915 0,-11.71159 9.48157,-19.39131 19.30859,-19.51953 z"
       transform="scale(0.26458333)"
       id="path942" />
  </g>
</svg>
